<svg xmlns="http://www.w3.org/2000/svg" width="1025" height="1429" viewBox="0 0 1025 1429" version="1.1"><path d="M 650.810 1.070 C 650.613 1.660, 645.557 2.565, 639.522 3.089 C 633.101 3.646, 627.666 4.644, 626.348 5.508 C 625.114 6.316, 623.400 6.707, 622.540 6.377 C 621.679 6.047, 620.418 6.218, 619.737 6.757 C 618.280 7.913, 610.119 9.125, 604.658 8.998 C 602.545 8.948, 600.295 9.318, 599.658 9.819 C 599.021 10.319, 596.025 11.020, 593 11.375 C 568.787 14.219, 563.817 15.156, 557.500 18.070 C 555.300 19.084, 551.475 20.225, 549 20.605 C 546.525 20.985, 543.612 21.904, 542.527 22.648 C 541.443 23.391, 539.765 24, 538.798 24 C 536.282 24, 524.184 27.852, 519.655 30.096 C 517.541 31.143, 514.687 32, 513.313 32 C 511.939 32, 509.671 32.900, 508.273 34 C 506.874 35.100, 504.271 36, 502.488 36 C 500.704 36, 498.685 36.675, 498 37.500 C 497.315 38.325, 495.712 39, 494.437 39 C 493.161 39, 491.857 39.422, 491.539 39.937 C 491.221 40.452, 488.525 42.026, 485.548 43.434 C 482.488 44.881, 479.860 46.864, 479.501 47.997 C 479.053 49.407, 477.988 50, 475.901 50 C 474.189 50, 472.694 50.634, 472.362 51.500 C 472.045 52.325, 471.173 53, 470.424 53 C 468.828 53, 461.217 56.840, 460.494 58.010 C 460.221 58.451, 459.211 58.607, 458.249 58.355 C 457.201 58.082, 455.027 59.248, 452.827 61.264 C 450.806 63.115, 447.266 65.252, 444.960 66.013 C 442.653 66.774, 439.834 68.658, 438.695 70.199 C 437.556 71.739, 436.103 73, 435.467 73 C 434.831 73, 433.495 73.900, 432.500 75 C 431.505 76.100, 429.972 77.007, 429.095 77.016 C 428.218 77.025, 425.700 78.134, 423.500 79.479 C 421.300 80.824, 418.488 82.381, 417.250 82.938 C 416.012 83.495, 415 84.401, 415 84.952 C 415 86.169, 407.314 90, 404.871 90 C 403.907 90, 402.840 90.450, 402.500 91 C 402.160 91.550, 401.028 92, 399.984 92 C 398.940 92, 396.829 93.575, 395.293 95.500 C 393.757 97.425, 392.050 99.005, 391.500 99.011 C 390.490 99.021, 383.352 105.467, 379.302 110.026 C 375.806 113.962, 371.647 117.553, 369.750 118.273 C 368.788 118.638, 368 119.626, 368 120.469 C 368 121.311, 367.311 122, 366.469 122 C 365.626 122, 364.638 122.788, 364.273 123.750 C 363.907 124.713, 362.346 126.613, 360.804 127.973 C 359.262 129.333, 358 131.020, 358 131.723 C 358 133.645, 354.634 136.624, 351.602 137.385 C 350.124 137.756, 348.640 138.834, 348.305 139.780 C 347.971 140.726, 345.965 143.204, 343.848 145.287 C 341.732 147.370, 340 149.877, 340 150.858 C 340 152.582, 330.007 163.366, 326.343 165.595 C 325.353 166.198, 324.247 168.136, 323.886 169.901 C 323.525 171.667, 322.536 173.649, 321.688 174.306 C 320.841 174.963, 319.185 177.382, 318.008 179.682 C 316.832 181.982, 315.224 184.400, 314.435 185.054 C 313.646 185.709, 313 186.799, 313 187.476 C 313 188.154, 311.975 189.814, 310.722 191.166 C 309.469 192.518, 307.808 195.552, 307.030 197.910 C 306.113 200.689, 304.804 202.504, 303.308 203.073 C 302.036 203.556, 301 204.788, 301 205.815 C 301 206.840, 299.875 208.192, 298.500 208.818 C 296.652 209.660, 296 210.730, 296 212.920 C 296 214.549, 295.550 216.160, 295 216.500 C 294.450 216.840, 294 219.328, 294 222.029 C 294 225.086, 293.245 228.283, 292 230.500 C 290.900 232.458, 289.989 235.735, 289.976 237.780 C 289.962 239.826, 289.538 243.300, 289.034 245.500 C 287.268 253.203, 289.744 260.943, 294.500 262.587 C 299.995 264.487, 305.903 264.416, 306.660 262.442 C 307.143 261.184, 307.479 261.328, 308.408 263.192 C 311.868 270.136, 321.567 267.437, 320.661 259.783 L 320.094 255 323.925 255 C 328.458 255, 330.437 253.065, 329.723 249.329 C 329.419 247.743, 329.780 246.077, 330.605 245.252 C 331.372 244.485, 332 242.819, 332 241.551 C 332 240.283, 332.675 238.685, 333.500 238 C 335.891 236.016, 335.478 229.112, 332.912 228.163 C 331.035 227.469, 330.984 227.258, 332.412 226.073 C 333.285 225.348, 334 224.113, 334 223.329 C 334 222.545, 334.900 220.041, 336 217.764 C 339.188 211.166, 336.452 205.303, 330.767 206.551 C 327.421 207.286, 327.476 206.962, 331.648 201.317 C 332.941 199.566, 334 197.842, 334 197.486 C 334 197.130, 335.524 194.513, 337.387 191.669 C 339.250 188.826, 341.109 185.375, 341.518 184 C 342.527 180.612, 345.515 176.339, 350.414 171.280 C 359.328 162.076, 374 145.121, 374 144.025 C 374 143.589, 374.849 143.011, 375.886 142.740 C 376.924 142.469, 378.391 140.954, 379.146 139.373 C 379.970 137.648, 381.460 136.366, 382.875 136.165 C 384.171 135.981, 385.431 135.067, 385.675 134.133 C 385.920 133.199, 387.501 131.824, 389.190 131.076 C 390.879 130.328, 392.457 128.968, 392.696 128.053 C 392.936 127.138, 394.399 125.910, 395.948 125.326 C 397.498 124.741, 399.380 122.979, 400.133 121.410 C 400.885 119.842, 402.509 118.055, 403.743 117.440 C 404.977 116.826, 406.777 115.610, 407.743 114.739 C 408.709 113.869, 411.071 113.009, 412.992 112.828 C 415.560 112.587, 416.574 111.971, 416.826 110.500 C 417.327 107.575, 419.879 106, 424.119 106 C 426.913 106, 428.351 105.370, 429.821 103.500 C 430.903 102.125, 432.747 101, 433.919 101 C 435.271 101, 436.397 100.087, 437 98.500 C 437.523 97.125, 438.673 96, 439.556 96 C 441.313 96, 450.270 90.323, 454.153 86.749 C 455.497 85.512, 458.375 83.880, 460.548 83.123 C 465.529 81.388, 467 80.216, 467 77.986 C 467 76.059, 470.042 74.922, 476.297 74.510 C 478.386 74.372, 481.086 73.368, 482.297 72.279 C 483.509 71.189, 485.175 70, 486 69.636 C 486.825 69.272, 489.500 67.846, 491.943 66.468 C 494.387 65.090, 498.191 63.673, 500.397 63.320 C 503.251 62.864, 505.713 61.428, 508.936 58.340 C 511.427 55.953, 514.184 54, 515.063 54 C 515.942 54, 518.824 52.905, 521.467 51.567 C 525.635 49.457, 526.555 49.309, 528.387 50.453 C 531.740 52.547, 537.122 52.249, 537.727 49.936 C 538.223 48.040, 539.164 47.582, 541.824 47.942 C 542.552 48.041, 543.677 47.706, 544.324 47.199 C 546.685 45.345, 550.765 44.944, 551.364 46.507 C 552.278 48.888, 556.899 48.361, 557.991 45.750 C 560.463 39.838, 569.209 35.868, 570.329 40.149 C 570.595 41.167, 571.685 42, 572.751 42 C 575.295 42, 578.314 38.714, 576.988 37.388 C 576.342 36.742, 580.414 36.004, 588.834 35.241 C 595.891 34.601, 602.849 33.628, 604.297 33.077 C 605.974 32.440, 607.145 32.426, 607.524 33.038 C 608.764 35.045, 618.142 34.174, 618.710 32 C 619.225 30.033, 622.426 29.349, 628.675 29.871 C 629.871 29.970, 631.135 29.590, 631.484 29.026 C 631.833 28.462, 633.194 28, 634.509 28 C 635.825 28, 637.260 27.392, 637.700 26.649 C 638.217 25.775, 641.479 25.075, 646.933 24.666 C 651.571 24.319, 655.823 23.577, 656.383 23.017 C 656.942 22.458, 658.876 22, 660.680 22 C 662.484 22, 665.774 21.274, 667.991 20.387 C 670.692 19.306, 672.431 19.096, 673.261 19.751 C 675.091 21.194, 691.397 22.203, 692.650 20.950 C 693.359 20.241, 695.060 20.263, 698.091 21.020 C 700.516 21.626, 703.063 22.076, 703.750 22.019 C 711.200 21.408, 715.017 22.511, 719.075 26.450 C 721.741 29.037, 723.596 30.077, 724.925 29.730 C 725.995 29.450, 727.731 29.824, 728.782 30.560 C 729.833 31.296, 731.608 31.830, 732.726 31.746 C 741.376 31.094, 747.970 58.767, 741.512 68.621 C 740.597 70.018, 739.194 73.712, 738.394 76.830 C 737.594 79.949, 735.877 84.750, 734.578 87.500 C 733.279 90.250, 731.923 94.186, 731.564 96.247 C 731.204 98.307, 729.902 101.081, 728.670 102.411 C 726.374 104.889, 725.722 106.061, 722.115 114.207 C 720.968 116.795, 719.124 119.399, 718.015 119.992 C 716.812 120.636, 716 122.087, 716 123.595 C 716 125.901, 711.839 132.552, 707.315 137.476 C 696.763 148.963, 688.525 159.147, 687.291 162.231 C 686.461 164.304, 685.425 166, 684.989 166 C 684.552 166, 682.582 168.429, 680.612 171.397 C 678.642 174.365, 674.148 179.704, 670.625 183.262 C 667.103 186.819, 663.936 190.626, 663.588 191.722 C 663.241 192.818, 662.121 194.116, 661.100 194.607 C 660.079 195.098, 657.359 197.750, 655.056 200.500 C 651.342 204.934, 641.292 216.103, 639.012 218.331 C 638.544 218.788, 636.888 220.406, 635.331 221.926 C 633.774 223.446, 630.700 226.858, 628.500 229.508 C 626.300 232.158, 624.023 234.815, 623.440 235.413 C 618.762 240.213, 611 250.231, 611 251.470 C 611 252.311, 610.314 253, 609.475 253 C 608.637 253, 607.559 254.030, 607.080 255.289 C 606.203 257.597, 595.938 267, 594.296 267 C 593.809 267, 591.631 269.340, 589.455 272.200 C 585.323 277.633, 577.346 286.642, 563.956 301 C 559.596 305.675, 553.885 312.061, 551.264 315.190 C 548.644 318.320, 545.254 321.847, 543.730 323.029 C 542.207 324.210, 540.299 326.455, 539.491 328.017 C 538.683 329.580, 537.229 331.111, 536.261 331.419 C 535.292 331.727, 532.925 334.073, 531 336.632 C 526.168 343.055, 516.015 353.044, 513.252 354.094 C 511.993 354.573, 510.567 355.985, 510.081 357.232 C 509.596 358.479, 506.627 362.200, 503.483 365.500 C 500.339 368.800, 497.006 372.463, 496.076 373.640 C 495.147 374.816, 493.523 375.945, 492.468 376.148 C 491.413 376.352, 490.032 377.558, 489.398 378.829 C 488.765 380.099, 487.291 381.808, 486.123 382.626 C 484.955 383.444, 484 384.672, 484 385.356 C 484 387.591, 474.662 397.687, 464.443 406.500 C 454.527 415.052, 450.319 419.408, 449.512 421.955 C 448.717 424.467, 435.579 438, 433.936 438 C 433.436 438, 432.372 439.462, 431.571 441.250 C 429.523 445.823, 425.781 449.647, 421.673 451.363 C 419.742 452.170, 417.602 453.881, 416.920 455.165 C 415.281 458.247, 409.105 463.949, 406.153 465.105 C 404.863 465.611, 403.573 466.919, 403.287 468.012 C 403.001 469.105, 401.950 470, 400.951 470 C 398.968 470, 395 474.892, 395 477.337 C 395 478.178, 394.139 479.138, 393.088 479.472 C 391.322 480.033, 382 490.069, 382 491.409 C 382 491.734, 381.213 492.827, 380.250 493.838 C 376.468 497.811, 368.482 507.231, 368.167 508.091 C 367.983 508.591, 367.389 509, 366.846 509 C 365.019 509, 355.875 517.402, 352.184 522.472 C 350.171 525.238, 345.481 530.610, 341.762 534.410 C 338.043 538.211, 335 541.872, 335 542.545 C 335 543.219, 333.875 544.507, 332.500 545.408 C 331.125 546.309, 330 547.602, 330 548.283 C 330 548.963, 329.100 550.081, 328 550.768 C 326.900 551.455, 326 552.913, 326 554.008 C 326 555.104, 325.460 556, 324.801 556 C 323.133 556, 317.361 561.549, 307.275 572.849 C 304.649 575.792, 300.925 579.842, 299 581.849 C 297.075 583.857, 294.686 586.762, 293.692 588.304 C 292.697 589.846, 291.063 591.421, 290.060 591.804 C 287.630 592.731, 281.136 600.611, 280.407 603.516 C 280.088 604.787, 278.853 606.072, 277.663 606.372 C 276.474 606.672, 273.279 609.861, 270.564 613.459 C 267.849 617.057, 265.374 620.070, 265.064 620.157 C 264.754 620.243, 263.150 620.497, 261.500 620.723 C 256.125 621.456, 254.729 621.387, 236.210 619.463 C 230.979 618.919, 228.154 619.067, 226.210 619.986 C 222.241 621.863, 219.811 622.795, 217 623.517 C 213.344 624.456, 208.177 626.905, 207.483 628.027 C 207.153 628.562, 205.585 629, 204 629 C 202.415 629, 200.840 629.450, 200.500 630 C 200.160 630.550, 198.787 631, 197.449 631 C 196.100 631, 194.461 631.890, 193.768 633 C 192.887 634.411, 191.436 635, 188.842 635 C 186.819 635, 182.924 636.125, 180.187 637.500 C 177.449 638.875, 174.338 640, 173.272 640 C 172.141 640, 170.330 641.539, 168.918 643.699 C 166.935 646.733, 165.525 647.643, 161.081 648.760 C 158.100 649.508, 154.552 650.994, 153.196 652.061 C 151.840 653.127, 149.496 654, 147.988 654 C 146.479 654, 144.685 654.675, 144 655.500 C 143.315 656.325, 142.147 657, 141.403 657 C 140.660 657, 139.353 658.350, 138.500 660 C 137.443 662.043, 136.199 663, 134.597 663 C 133.303 663, 131.685 663.675, 131 664.500 C 130.315 665.325, 128.730 666, 127.478 666 C 126.226 666, 122.861 667.575, 120 669.500 C 117.139 671.425, 114.327 673, 113.750 673 C 113.172 673, 110.341 675.475, 107.458 678.500 C 104.574 681.525, 101.707 684, 101.086 684 C 100.465 684, 99.469 685.070, 98.873 686.379 C 98.163 687.938, 97.183 688.599, 96.031 688.298 C 94.209 687.821, 90 692.162, 90 694.516 C 90 695.202, 87.961 696.276, 85.468 696.904 C 82.236 697.718, 80.611 698.759, 79.801 700.537 C 78.974 702.352, 77.614 703.198, 74.796 703.649 C 72.667 703.989, 70.380 705.024, 69.713 705.950 C 69.046 706.875, 67.713 707.925, 66.750 708.284 C 65.787 708.643, 65 709.626, 65 710.469 C 65 711.327, 64.132 712, 63.026 712 C 61.843 712, 60.429 713.204, 59.500 715 C 58.647 716.650, 57.246 718, 56.387 718 C 55.529 718, 54.317 719.350, 53.694 721 C 53.071 722.650, 51.986 724, 51.282 724 C 50.578 724, 48.148 725.800, 45.881 728 C 43.614 730.200, 41.138 732, 40.379 732 C 39.621 732, 39 732.450, 39 733 C 39 733.550, 37.705 734, 36.122 734 C 32.614 734, 31.393 735.357, 30.473 740.276 C 29.896 743.364, 28.962 744.524, 25.350 746.641 C 22.921 748.065, 20.319 750.416, 19.569 751.867 C 18.819 753.318, 17.259 755.361, 16.102 756.407 C 14.946 757.454, 13.982 758.803, 13.959 759.405 C 13.937 760.007, 12.587 762.058, 10.959 763.962 C 9.332 765.866, 8 767.949, 8 768.590 C 8 769.231, 7.290 770.344, 6.422 771.065 C 1.039 775.532, -3.886 817, 0.966 817 C 1.535 817, 2 817.591, 2 818.313 C 2 819.035, 3.350 820.919, 5 822.500 C 6.650 824.081, 8 826.233, 8 827.282 C 8 828.332, 9.350 831.650, 11 834.657 C 12.650 837.663, 14 840.717, 14 841.443 C 14 842.169, 15.688 844.035, 17.750 845.589 C 19.813 847.144, 22.656 849.560, 24.068 850.958 C 30.149 856.976, 35.794 862, 36.476 862 C 36.881 862, 38.097 863.125, 39.179 864.500 C 40.387 866.037, 42.177 867.009, 43.823 867.023 C 45.295 867.036, 50.521 869.061, 55.436 871.523 C 60.351 873.985, 65.324 876, 66.486 876 C 67.649 876, 69.128 876.528, 69.773 877.173 C 70.649 878.049, 71.566 878.063, 73.397 877.229 C 75.289 876.367, 76.097 876.412, 76.940 877.428 C 77.541 878.151, 79.955 878.960, 82.306 879.225 C 84.657 879.490, 88.137 880.399, 90.040 881.245 C 91.943 882.091, 95.750 883.335, 98.500 884.009 C 101.250 884.684, 108 886.603, 113.500 888.274 C 119 889.945, 125.851 891.366, 128.725 891.431 C 131.598 891.496, 134.501 892.101, 135.175 892.775 C 136.989 894.589, 138.575 894.272, 140.241 891.764 C 141.509 889.854, 141.959 889.721, 143.327 890.857 C 144.356 891.710, 147.179 892.111, 151.214 891.978 C 162.860 891.593, 164.727 891.847, 165.262 893.894 C 165.855 896.163, 171.646 897.754, 173.299 896.101 C 175.443 893.957, 178.069 894.921, 179.515 898.382 C 181.060 902.079, 181.951 902.397, 194.114 903.596 C 198.061 903.985, 200.971 903.856, 201.329 903.277 C 202.038 902.130, 221.548 904.459, 224.253 906.013 C 225.217 906.567, 229.042 907.054, 232.753 907.095 C 251.119 907.298, 254.531 907.548, 255.300 908.749 C 256.234 910.211, 260.616 910.430, 261.464 909.058 C 261.784 908.540, 264.708 908.318, 267.960 908.564 C 271.213 908.811, 274.128 908.603, 274.437 908.101 C 274.747 907.600, 276.792 907.431, 278.982 907.724 C 281.927 908.119, 283.110 907.876, 283.528 906.788 C 283.986 905.595, 285.109 905.477, 289.482 906.162 C 294.148 906.894, 295.368 906.716, 298.553 904.836 C 301.922 902.849, 302.312 902.806, 303.166 904.332 C 304.328 906.408, 307.865 906.516, 308.638 904.500 C 309.042 903.447, 310.684 903, 314.142 903 L 319.070 903 315.785 905.776 C 313.978 907.303, 311.150 909.206, 309.500 910.005 C 307.850 910.804, 304.849 913.042, 302.830 914.979 C 290.118 927.176, 283.220 932.971, 277.814 935.997 C 276.337 936.824, 272.829 939.637, 270.018 942.250 C 267.206 944.862, 264.507 947, 264.018 947 C 263.529 947, 261.863 948.794, 260.315 950.986 C 258.767 953.178, 256.708 955.235, 255.739 955.557 C 254.771 955.878, 253.326 957.403, 252.529 958.944 C 251.732 960.485, 250.162 961.986, 249.040 962.279 C 247.648 962.643, 247 963.637, 247 965.406 C 247 967.261, 246.474 968, 245.155 968 C 242.915 968, 240 971.027, 240 973.353 C 240 974.286, 238.875 975.477, 237.500 976 C 236.125 976.523, 235 977.370, 235 977.882 C 235 978.394, 234.105 978.579, 233.012 978.293 C 231.724 977.956, 230.795 978.371, 230.373 979.470 C 230.015 980.404, 228.798 981.509, 227.669 981.927 C 226.540 982.345, 225.102 984.213, 224.473 986.080 C 223.613 988.635, 222.520 989.706, 220.051 990.414 C 217.899 991.032, 216.461 992.238, 215.866 993.927 C 215.290 995.561, 213.506 997.112, 210.980 998.176 C 207.838 999.499, 207 1000.381, 207 1002.369 C 207 1003.968, 204.993 1007.252, 201.500 1011.369 C 198.475 1014.935, 196 1018.448, 196 1019.176 C 195.999 1021.157, 186.251 1029.167, 184.243 1028.837 C 181.695 1028.417, 180 1029.810, 180 1032.322 C 180 1033.617, 179.102 1034.933, 177.823 1035.513 C 176.574 1036.079, 174.974 1038.373, 174.073 1040.889 C 173.208 1043.302, 169.916 1048.252, 166.758 1051.889 C 163.600 1055.525, 160 1059.957, 158.758 1061.738 C 157.516 1063.518, 156.026 1064.981, 155.446 1064.988 C 153.986 1065.005, 148.946 1070.607, 145.539 1076 C 143.975 1078.475, 142.049 1080.882, 141.258 1081.350 C 140.468 1081.817, 138.589 1084.804, 137.084 1087.987 C 135.578 1091.170, 132.919 1095.578, 131.173 1097.781 C 129.428 1099.985, 127.997 1102.173, 127.994 1102.644 C 127.990 1103.115, 126.686 1104.240, 125.096 1105.145 C 123.288 1106.173, 121.951 1107.948, 121.526 1109.883 C 121.152 1111.585, 120.422 1113.239, 119.903 1113.560 C 119.384 1113.881, 117.373 1117.374, 115.436 1121.322 C 113.498 1125.270, 111.037 1129.850, 109.967 1131.500 C 108.897 1133.150, 107.724 1135.175, 107.359 1136 C 106.994 1136.825, 106.150 1138.175, 105.482 1139 C 104.815 1139.825, 103.948 1141.850, 103.556 1143.500 C 103.165 1145.150, 102.119 1147.304, 101.233 1148.287 C 100.250 1149.379, 99.458 1152.494, 99.200 1156.287 C 98.849 1161.462, 98.323 1162.925, 96.053 1165.044 C 93.996 1166.964, 93.172 1168.900, 92.695 1172.931 C 92.347 1175.870, 91.411 1179, 90.615 1179.887 C 89.767 1180.834, 88.935 1184.598, 88.604 1189 C 87.657 1201.557, 87.534 1202.448, 86.530 1204 C 85.373 1205.788, 85.100 1224.944, 86.221 1225.637 C 86.649 1225.901, 87 1227.195, 87 1228.510 C 87 1229.826, 87.704 1233.512, 88.565 1236.701 C 89.426 1239.891, 90.290 1243.625, 90.485 1245 C 91.385 1251.357, 95.332 1263.652, 96.914 1265.027 C 97.880 1265.867, 99.003 1267.875, 99.408 1269.489 C 99.813 1271.103, 101.462 1274.376, 103.072 1276.762 C 104.683 1279.148, 106 1281.967, 106 1283.027 C 106 1284.087, 107.125 1285.691, 108.500 1286.592 C 110.144 1287.669, 111 1289.154, 111 1290.928 C 111 1292.620, 112.118 1294.697, 114 1296.500 C 115.650 1298.081, 117 1299.893, 117 1300.526 C 117 1301.160, 118.575 1303.112, 120.500 1304.864 C 122.425 1306.615, 124 1308.466, 124 1308.976 C 124 1310.336, 131.095 1317, 132.543 1317 C 133.223 1317, 134.685 1318.925, 135.791 1321.278 C 136.911 1323.662, 139.048 1326.207, 140.618 1327.028 C 142.166 1327.838, 147.388 1332.438, 152.221 1337.250 C 157.054 1342.063, 161.607 1346, 162.338 1346 C 163.069 1346, 165.617 1347.800, 168 1350 C 170.383 1352.200, 173.103 1354, 174.044 1354 C 174.985 1354, 176.315 1354.675, 177 1355.500 C 177.685 1356.325, 178.810 1357, 179.500 1357 C 180.190 1357, 181.276 1357.628, 181.913 1358.395 C 182.550 1359.163, 184.743 1360.097, 186.786 1360.472 C 190.622 1361.175, 197 1366.330, 197 1368.728 C 197 1370.592, 199.195 1371.233, 202.011 1370.192 C 203.980 1369.463, 204.804 1369.802, 206.784 1372.156 C 208.101 1373.720, 209.765 1375, 210.482 1375 C 211.199 1375, 212.023 1375.619, 212.314 1376.375 C 212.798 1377.637, 216.032 1378.665, 221.751 1379.374 C 222.989 1379.527, 225.014 1380.593, 226.251 1381.741 C 227.548 1382.945, 230.617 1384.129, 233.500 1384.537 C 236.250 1384.926, 239.271 1385.919, 240.213 1386.744 C 241.155 1387.568, 242.584 1387.990, 243.390 1387.681 C 244.195 1387.372, 245.345 1387.711, 245.946 1388.435 C 246.546 1389.158, 248.780 1390.029, 250.910 1390.370 C 253.039 1390.710, 255.042 1391.666, 255.359 1392.494 C 255.689 1393.353, 257.175 1394, 258.815 1394 C 260.398 1394, 263.138 1394.721, 264.903 1395.602 C 266.669 1396.483, 268.988 1396.975, 270.056 1396.696 C 271.414 1396.341, 272.639 1397.089, 274.132 1399.185 C 275.762 1401.475, 276.843 1402.072, 278.711 1401.715 C 282.214 1401.045, 288.499 1402.659, 295.615 1406.055 C 299.009 1407.675, 302.965 1409, 304.407 1409 C 305.848 1409, 307.809 1409.418, 308.764 1409.928 C 311.044 1411.146, 324.871 1413.198, 326.019 1412.488 C 326.510 1412.185, 328.546 1412.619, 330.543 1413.454 C 333.155 1414.545, 335.227 1414.734, 337.923 1414.129 C 340.453 1413.560, 342.194 1413.669, 343.280 1414.463 C 344.165 1415.110, 347.648 1415.715, 351.021 1415.808 C 354.394 1415.901, 357.682 1416.320, 358.327 1416.738 C 359.460 1417.474, 360.926 1417.689, 369.500 1418.372 C 371.700 1418.548, 374.625 1418.971, 376 1419.314 C 377.375 1419.656, 381.880 1420.083, 386.011 1420.261 C 390.142 1420.440, 394.019 1420.894, 394.628 1421.270 C 395.236 1421.646, 400.327 1422.180, 405.941 1422.457 C 414.982 1422.904, 416.356 1423.218, 417.967 1425.207 C 419.523 1427.130, 420.125 1427.288, 422.143 1426.310 C 426.377 1424.257, 429.154 1424.106, 432.583 1425.741 C 435.708 1427.231, 436.094 1427.225, 437.835 1425.650 C 439.569 1424.080, 439.817 1424.074, 441.068 1425.582 C 442.091 1426.815, 443.447 1427.074, 446.616 1426.639 C 449.665 1426.221, 451.148 1426.473, 452.051 1427.562 C 453.884 1429.771, 510.258 1429.599, 512.100 1427.379 C 512.923 1426.387, 514.254 1426.116, 516.200 1426.544 C 517.785 1426.892, 519.626 1426.749, 520.291 1426.226 C 522.591 1424.418, 526.894 1423.998, 531.974 1425.088 C 535.827 1425.914, 537.427 1425.890, 538.512 1424.990 C 539.302 1424.334, 541.648 1423.664, 543.724 1423.501 C 549.702 1423.032, 564.403 1419.997, 565.367 1419.033 C 565.849 1418.551, 566.781 1418.362, 567.438 1418.614 C 568.094 1418.866, 569.952 1418.384, 571.566 1417.542 C 573.180 1416.701, 575.266 1416.010, 576.203 1416.006 C 577.140 1416.003, 578.940 1415.602, 580.203 1415.115 C 581.466 1414.628, 585.875 1413.437, 590 1412.467 C 594.125 1411.497, 597.950 1410.382, 598.500 1409.988 C 599.050 1409.595, 602.137 1408.977, 605.359 1408.615 C 610.072 1408.086, 611.882 1407.331, 614.614 1404.754 C 617.328 1402.194, 618.712 1401.611, 621.507 1401.852 C 623.969 1402.064, 625.183 1401.687, 625.609 1400.577 C 625.942 1399.710, 626.775 1399, 627.461 1399 C 628.147 1399, 629.922 1397.875, 631.405 1396.500 C 632.889 1395.125, 634.910 1394, 635.897 1394 C 636.883 1394, 638.505 1393.100, 639.500 1392 C 640.495 1390.900, 642.114 1390, 643.096 1390 C 644.078 1390, 645.177 1389.522, 645.538 1388.938 C 645.899 1388.354, 647.319 1387.449, 648.694 1386.926 C 650.069 1386.404, 651.412 1385.142, 651.678 1384.122 C 651.961 1383.040, 653.728 1381.799, 655.920 1381.142 C 658.544 1380.356, 660.218 1379.010, 661.476 1376.674 C 662.877 1374.073, 663.782 1373.427, 665.550 1373.765 C 667.071 1374.055, 668.162 1373.566, 668.846 1372.288 C 670.541 1369.121, 677.894 1362, 679.469 1362 C 680.278 1362, 681.945 1360.640, 683.174 1358.978 C 684.403 1357.317, 686.877 1355.090, 688.672 1354.031 C 690.630 1352.876, 692.201 1350.985, 692.599 1349.303 C 692.964 1347.761, 694.047 1345.600, 695.006 1344.500 C 695.965 1343.400, 697.272 1341.487, 697.910 1340.250 C 698.548 1339.013, 699.885 1338, 700.880 1338 C 703.599 1338, 709 1330.320, 709 1326.453 C 709 1325.772, 709.656 1324.962, 710.458 1324.654 C 711.665 1324.191, 718 1312.336, 718 1310.542 C 718 1310.244, 718.900 1309.100, 720 1308 C 721.242 1306.758, 722 1304.667, 722 1302.480 C 722 1300.448, 723.057 1297.286, 724.500 1295 C 725.875 1292.822, 727 1289.707, 727 1288.079 C 727 1286.450, 727.476 1284.824, 728.059 1284.464 C 728.641 1284.104, 728.851 1282.600, 728.527 1281.122 C 728.198 1279.627, 728.565 1277.118, 729.354 1275.467 C 730.133 1273.835, 731.062 1268, 731.418 1262.500 C 731.773 1257, 732.558 1251.125, 733.162 1249.446 C 734 1247.116, 733.903 1244.504, 732.755 1238.446 C 731.927 1234.075, 731.408 1228.250, 731.602 1225.500 C 732.236 1216.521, 732.204 1215.585, 731.006 1208 C 730.355 1203.875, 729.858 1197.841, 729.902 1194.591 C 729.946 1191.342, 729.531 1188.140, 728.980 1187.476 C 728.101 1186.417, 727.162 1181.380, 725.301 1167.744 C 725.019 1165.678, 724.386 1163.739, 723.894 1163.435 C 723.402 1163.131, 723 1161.810, 723 1160.500 C 723 1159.190, 722.550 1157.840, 722 1157.500 C 721.450 1157.160, 721 1155.654, 721 1154.152 C 721 1152.651, 720.098 1149.654, 718.996 1147.492 C 717.894 1145.330, 716.108 1140.436, 715.027 1136.617 C 713.897 1132.623, 711.987 1128.552, 710.531 1127.032 C 709.139 1125.579, 708 1123.697, 708 1122.849 C 708 1120.230, 705.001 1115.135, 703.106 1114.533 C 702.115 1114.219, 700.791 1112.244, 700.162 1110.145 C 699.533 1108.045, 697.672 1104.341, 696.027 1101.914 C 694.382 1099.486, 693.028 1097.007, 693.018 1096.405 C 693.008 1095.803, 692.134 1094.526, 691.075 1093.567 C 688.603 1091.331, 684 1081.949, 684 1079.148 C 684 1077.660, 682.159 1075.682, 678.043 1072.748 C 674.766 1070.411, 671.527 1067.178, 670.844 1065.563 C 670.161 1063.948, 667.329 1059.902, 664.551 1056.573 C 661.773 1053.243, 658.731 1048.821, 657.792 1046.744 C 656.853 1044.668, 655.278 1042.674, 654.292 1042.314 C 652.073 1041.502, 642.538 1031.395, 640.788 1028 C 639.157 1024.834, 635.029 1020.584, 632.750 1019.723 C 631.788 1019.360, 630.982 1018.486, 630.959 1017.781 C 630.937 1017.077, 629.587 1014.942, 627.959 1013.038 C 626.332 1011.134, 625 1008.861, 625 1007.988 C 625 1005.875, 623.025 1004, 620.800 1004 C 619.810 1004, 618.999 1003.438, 618.999 1002.750 C 618.998 1002.063, 615.636 998.225, 611.528 994.222 C 607.420 990.219, 602.867 985.381, 601.411 983.472 C 599.954 981.562, 598.126 980, 597.348 980 C 596.569 980, 595.048 978.501, 593.968 976.670 C 592.887 974.838, 590.827 972.710, 589.390 971.941 C 587.952 971.172, 586.388 969.520, 585.913 968.271 C 585.438 967.022, 584.251 965.990, 583.275 965.979 C 582.299 965.967, 580.234 964.168, 578.688 961.982 C 577.068 959.693, 574.735 957.737, 573.188 957.371 C 571.709 957.022, 569.288 955.445, 567.806 953.868 C 566.325 952.291, 564.223 951, 563.136 951 C 561.780 951, 560.964 950.113, 560.539 948.179 C 560.181 946.547, 557.811 943.493, 554.915 940.929 C 549.859 936.456, 546 931.065, 546 928.478 C 546 926.567, 540.129 920, 538.421 920 C 537.425 920, 537.217 919.163, 537.662 916.942 C 538.167 914.414, 537.915 913.791, 536.206 913.344 C 534.082 912.788, 531.006 906.941, 530.030 901.604 C 529.738 900.011, 528.600 898.211, 527.500 897.604 C 526.400 896.997, 525.140 895.938, 524.700 895.250 C 524.260 894.563, 522.842 894, 521.548 894 C 519.833 894, 518.912 893.187, 518.150 891 C 517.575 889.350, 516.720 888, 516.251 888 C 515.782 888, 513.396 885.984, 510.949 883.520 C 505.934 878.471, 504.402 878.109, 500.619 881.085 L 497.969 883.170 495.262 880.085 C 493.773 878.388, 492.028 877, 491.384 877 C 490.741 877, 489.955 876.325, 489.638 875.500 C 489.322 874.675, 488.419 874, 487.632 874 C 486.846 874, 485.264 872.200, 484.117 870 C 482.970 867.800, 482.450 866, 482.961 866 C 483.473 866, 484.478 864.824, 485.195 863.387 C 486.191 861.393, 488.276 860.176, 494 858.249 C 498.125 856.860, 502.175 855.196, 503 854.550 C 506.494 851.814, 513.480 849.586, 517.953 849.781 C 522.003 849.957, 523.035 849.572, 525.544 846.954 C 528.469 843.901, 533.310 841, 535.479 841 C 536.124 841, 537.708 839.875, 539 838.500 C 540.292 837.125, 541.867 836, 542.500 836 C 543.133 836, 544.708 834.875, 546 833.500 C 547.292 832.125, 549.110 831, 550.039 831 C 550.969 831, 552.803 830.190, 554.115 829.200 C 555.427 828.210, 559.774 826.331, 563.774 825.023 C 567.775 823.716, 571.543 822.051, 572.147 821.323 C 572.751 820.595, 574.329 820, 575.654 820 C 576.979 820, 578.322 819.325, 578.638 818.500 C 578.955 817.675, 579.773 817, 580.457 817 C 581.141 817, 583.498 815.697, 585.696 814.105 C 587.894 812.513, 591.102 810.482, 592.826 809.590 C 594.549 808.699, 598.437 805.951, 601.466 803.485 C 604.494 801.018, 607.620 799, 608.413 799 C 609.206 799, 610.675 797.985, 611.677 796.745 C 613.966 793.914, 618.438 791, 620.496 791 C 621.358 791, 622.322 790.325, 622.638 789.500 C 622.955 788.675, 623.728 787.992, 624.357 787.982 C 625.617 787.962, 631.707 782.105, 638.116 774.750 C 640.392 772.138, 642.742 770, 643.338 770 C 645.073 770, 658 756.014, 658 754.137 C 658 753.198, 660.275 750.196, 663.056 747.465 C 668.532 742.088, 676 728.120, 676 723.254 C 676 722.185, 676.900 720.495, 678 719.500 C 679.100 718.505, 680.007 716.522, 680.015 715.095 C 680.040 710.952, 681.478 709.588, 685.683 709.721 C 688.667 709.815, 690.060 709.234, 692.068 707.059 C 694.046 704.914, 695.923 704.115, 700.248 703.575 C 703.334 703.189, 706.397 702.227, 707.052 701.437 C 707.708 700.647, 709.326 700, 710.647 700 C 712.265 700, 713.348 699.214, 713.964 697.594 C 714.933 695.046, 722.158 692.705, 725.973 693.703 C 727.206 694.026, 728.401 693.317, 729.530 691.594 C 730.465 690.167, 732.155 689, 733.286 689 C 734.417 689, 736.133 688.285, 737.098 687.411 C 738.973 685.714, 743.156 684.444, 752 682.886 C 760.937 681.312, 765.374 679.931, 767.500 678.064 C 768.600 677.097, 772.597 675.565, 776.383 674.660 C 780.169 673.754, 784.602 672.347, 786.234 671.533 C 787.866 670.719, 790.736 669.765, 792.612 669.413 C 794.487 669.061, 796.269 668.374, 796.570 667.887 C 796.871 667.399, 799.326 667, 802.024 667 C 805.906 667, 807.153 666.583, 808 665 C 808.589 663.900, 809.491 663, 810.006 663 C 810.520 663, 813.400 661.875, 816.406 660.500 C 819.412 659.125, 822.830 658, 824.002 658 C 825.173 658, 827.114 657.468, 828.316 656.817 C 829.517 656.166, 832.300 655.553, 834.500 655.455 C 836.700 655.356, 840.075 654.315, 842 653.141 C 844.477 651.631, 847.147 651.006, 851.135 651.004 C 855.967 651.001, 856.993 650.660, 858.332 648.616 C 859.274 647.179, 861.207 646.029, 863.197 645.722 C 867.640 645.036, 875.133 642.176, 877.079 640.423 C 877.947 639.640, 879.431 639, 880.377 639 C 881.323 639, 883.959 638.100, 886.236 637 C 888.513 635.900, 891.101 635, 891.988 635 C 892.875 635, 894.085 634.515, 894.679 633.921 C 895.272 633.328, 899.299 632.680, 903.629 632.481 C 914.565 631.979, 919.171 631.075, 921.500 628.972 C 923.168 627.467, 924.913 627.220, 932 627.490 C 936.675 627.667, 941.022 627.383, 941.661 626.858 C 942.407 626.244, 943.054 626.278, 943.470 626.951 C 944.432 628.507, 948.572 628.221, 950 626.500 C 950.803 625.533, 953.067 624.989, 956.372 624.968 C 959.286 624.950, 962.338 624.303, 963.441 623.468 C 964.509 622.661, 966.723 622, 968.362 622 C 970.001 622, 972.213 621.212, 973.276 620.250 C 975.230 618.481, 991 617.384, 991 619.017 C 991 619.884, 980.460 627.061, 976.849 628.652 C 975.107 629.420, 973.961 630.903, 973.504 632.981 C 973.018 635.193, 972.372 635.973, 971.349 635.580 C 966.878 633.865, 960.458 640.399, 964.354 642.700 C 965.099 643.140, 966.254 644.540, 966.922 645.811 C 968.455 648.729, 972.364 648.455, 972.800 645.398 C 973.028 643.804, 973.651 643.402, 975.381 643.732 C 978.238 644.279, 986 642.253, 986 640.961 C 986 640.433, 987.295 640, 988.878 640 C 994.598 640, 1007.766 633.655, 1008.188 630.695 C 1008.383 629.331, 1009.839 627.879, 1012.060 626.836 C 1014.018 625.916, 1016.210 624.452, 1016.932 623.582 C 1017.654 622.712, 1018.752 621.985, 1019.372 621.967 C 1023.511 621.845, 1025 618.351, 1025 608.761 L 1025 599.342 1020.250 597.170 C 1017.638 595.976, 1014.600 595.042, 1013.500 595.096 C 1012.400 595.149, 1008.125 594.836, 1004 594.400 C 989.694 592.888, 972.230 594.335, 964.181 597.698 C 962.020 598.601, 959.379 598.919, 957.293 598.527 C 954.827 598.065, 953.037 598.432, 950.687 599.884 C 948.010 601.539, 945.020 601.976, 933.003 602.467 C 925.049 602.793, 918.104 603.496, 917.571 604.029 C 917.037 604.563, 915.592 605, 914.359 605 C 913.126 605, 911.840 605.450, 911.500 606 C 911.160 606.550, 909.094 607, 906.910 607 C 904.301 607, 902.740 607.515, 902.362 608.500 C 901.971 609.517, 900.378 610, 897.414 610 C 895.009 610, 890.220 610.860, 886.771 611.911 C 883.322 612.962, 878.042 614.326, 875.038 614.942 C 872.034 615.558, 867.309 617.160, 864.538 618.502 C 861.767 619.843, 856.908 621.437, 853.740 622.043 C 850.193 622.722, 846.775 624.160, 844.843 625.785 C 842.589 627.682, 840.788 628.345, 838.442 628.143 C 836.396 627.967, 834.864 628.404, 834.338 629.313 C 833.556 630.668, 831.510 631.145, 820.022 632.651 C 817.559 632.973, 813.967 634.309, 812.040 635.619 C 810.113 636.928, 807.395 638, 806 638 C 804.605 638, 801.809 639.125, 799.785 640.500 C 797.762 641.875, 795.191 643, 794.073 643 C 791.750 643, 785.289 645.279, 779.655 648.085 C 777.541 649.138, 774.559 650, 773.028 650 C 771.497 650, 769.685 650.675, 769 651.500 C 768.256 652.396, 766.070 653, 763.569 653 C 761.266 653, 758.509 653.661, 757.441 654.468 C 756.374 655.276, 753.432 655.951, 750.904 655.968 C 748.376 655.986, 744.776 656.771, 742.904 657.714 C 741.032 658.657, 737.190 659.469, 734.367 659.520 C 729.991 659.598, 728.763 660.083, 726.040 662.806 C 723.779 665.067, 721.912 666, 719.646 666 C 717.333 666, 715.707 666.842, 713.783 669.034 C 711.752 671.348, 710.562 671.928, 708.766 671.478 C 707.129 671.066, 705.846 671.512, 704.551 672.943 C 703.528 674.075, 702.140 675, 701.467 675 C 700.795 675, 699.717 675.636, 699.072 676.413 C 698.427 677.190, 695.665 678.134, 692.933 678.509 C 689.658 678.960, 687.637 679.810, 686.997 681.006 C 686.409 682.104, 685.303 682.630, 684.193 682.340 C 683.185 682.077, 681.812 682.522, 681.142 683.329 C 679.439 685.381, 674 683.343, 674 680.654 C 674 678.255, 667.378 664.559, 665.442 662.952 C 664.649 662.294, 664 661.214, 664 660.552 C 664 658.967, 659.738 655, 658.035 655 C 657.301 655, 654.787 652.975, 652.449 650.500 C 650.111 648.025, 647.527 646, 646.707 646 C 645.886 646, 643.499 643.750, 641.402 641 C 639.305 638.250, 637.017 636, 636.318 636 C 635.618 636, 634.373 634.972, 633.550 633.716 C 632.635 632.320, 629.808 630.730, 626.277 629.626 C 620.268 627.748, 618.855 627.169, 607.857 622.076 C 604.203 620.384, 600.577 619, 599.798 619 C 599.019 619, 597.509 618.339, 596.441 617.532 C 595.374 616.724, 593.969 616.049, 593.320 616.032 C 591.536 615.984, 579.183 610.105, 578.482 608.970 C 578.144 608.425, 576.608 608.074, 575.068 608.192 C 573.527 608.309, 571.045 607.604, 569.551 606.625 C 567.377 605.201, 564.805 604.858, 556.667 604.908 C 551.075 604.942, 544.700 604.804, 542.500 604.600 C 540.300 604.396, 531.991 603.920, 524.036 603.542 C 516.081 603.163, 509.228 602.641, 508.808 602.381 C 508.388 602.122, 505.823 602.569, 503.109 603.375 C 500.395 604.181, 497.945 604.611, 497.665 604.331 C 497.050 603.716, 485.913 606.028, 484.500 607.063 C 483.950 607.467, 481.250 607.762, 478.500 607.721 C 475.750 607.679, 471.925 608.383, 470 609.285 C 468.075 610.187, 463.743 611.127, 460.373 611.373 C 457.003 611.620, 452.848 612.544, 451.139 613.428 C 449.430 614.312, 445.780 615.086, 443.030 615.148 C 440.141 615.213, 437.548 615.839, 436.892 616.630 C 436.267 617.384, 434.798 618.014, 433.628 618.032 C 432.457 618.049, 430.626 618.724, 429.559 619.532 C 428.491 620.339, 426.727 621, 425.638 621 C 424.549 621, 422.844 621.736, 421.849 622.636 C 420.802 623.584, 418.338 624.273, 415.995 624.273 C 413.770 624.273, 411.709 624.661, 411.416 625.136 C 411.122 625.611, 409.820 626, 408.523 626 C 406.153 626, 397.662 629.855, 393 633.048 C 391.625 633.989, 388.137 636.240, 385.250 638.048 C 382.362 639.857, 380 641.711, 380 642.168 C 380 642.626, 379.347 643, 378.550 643 C 377.752 643, 376.740 643.609, 376.300 644.354 C 375.860 645.099, 374.488 646.240, 373.250 646.889 C 372.012 647.539, 371 648.711, 371 649.493 C 371 650.275, 368.965 652.108, 366.477 653.566 C 363.990 655.024, 361.515 657.038, 360.978 658.042 C 360.440 659.046, 358.790 660.009, 357.311 660.184 C 354.310 660.536, 352.351 663.409, 346.865 675.500 C 346.366 676.600, 344.866 678.993, 343.532 680.818 C 341.782 683.213, 340.917 686.071, 340.422 691.090 C 340.046 694.915, 339.346 698.286, 338.869 698.581 C 337.663 699.327, 337.774 707.742, 339 708.500 C 339.550 708.840, 340 710.142, 340 711.394 C 340 712.645, 341.575 716.906, 343.500 720.861 C 345.425 724.817, 347 728.926, 347 729.993 C 347 731.059, 347.628 733.410, 348.396 735.216 C 349.163 737.022, 350.306 740.975, 350.935 744 C 351.564 747.025, 352.402 751.075, 352.798 753 C 353.251 755.206, 354.332 756.859, 355.720 757.470 C 356.931 758.004, 358.681 760.029, 359.608 761.970 C 360.535 763.912, 361.680 766.175, 362.154 767 C 362.627 767.825, 363.559 769.625, 364.223 771 C 364.888 772.375, 366.427 774.850, 367.644 776.500 C 368.860 778.150, 370.609 781.750, 371.532 784.500 C 372.454 787.250, 373.837 790.210, 374.604 791.079 C 375.372 791.947, 376 793.163, 376 793.782 C 376 794.400, 377.767 796.326, 379.926 798.061 C 382.554 800.172, 384.134 802.421, 384.702 804.858 C 385.188 806.939, 386.398 808.880, 387.526 809.387 C 389.442 810.248, 394.059 816.689, 395.324 820.265 C 395.668 821.236, 397.114 822.473, 398.539 823.015 C 399.963 823.556, 402.265 825.350, 403.653 827 C 405.042 828.650, 406.651 830, 407.229 830 C 408.323 830, 410.913 832.944, 410.968 834.250 C 410.986 834.663, 410.390 835, 409.644 835 C 408.898 835, 406.225 836.575, 403.704 838.500 C 401.183 840.425, 398.784 842, 398.374 842 C 397.964 842, 396.642 842.927, 395.435 844.061 C 394.229 845.194, 391.284 847.169, 388.892 848.448 C 386.398 849.782, 383.893 852.093, 383.021 853.865 C 381.782 856.383, 380.885 856.959, 378.178 856.977 C 376.351 856.990, 372.976 858.083, 370.678 859.406 C 368.380 860.730, 363.217 862.596, 359.204 863.553 C 354.565 864.659, 351.414 865.999, 350.550 867.233 C 349.421 868.844, 348.830 868.979, 347.058 868.031 C 344.385 866.600, 341.577 867.451, 339.264 870.392 C 337.586 872.524, 331.013 874.216, 324.500 874.191 C 319.407 874.171, 297.192 877.288, 293.599 878.526 C 291.387 879.288, 289.561 879.819, 289.539 879.706 C 288.818 875.907, 284.728 874.034, 282.176 876.334 C 279.715 878.552, 275.227 879.433, 273.537 878.031 C 272.747 877.375, 270.553 876.971, 268.662 877.134 C 266.771 877.297, 264.581 876.897, 263.796 876.245 C 262.720 875.352, 260.077 875.316, 253.079 876.097 C 247.971 876.667, 243.051 876.836, 242.146 876.471 C 241.241 876.106, 236.386 875.641, 231.358 875.436 C 226.330 875.232, 220.255 874.382, 217.858 873.547 C 215.461 872.712, 211.813 872.023, 209.750 872.015 C 207.116 872.004, 206 871.560, 206 870.523 C 206 868.218, 201.389 865.686, 198.507 866.409 C 196.087 867.016, 196 866.869, 196 862.141 C 196 856.575, 194.433 854.602, 190.746 855.528 C 188.082 856.196, 186.835 854.187, 185.451 847 C 185.081 845.075, 184.083 842.712, 183.234 841.750 C 181.839 840.169, 181.850 839.823, 183.345 838.171 C 184.255 837.165, 185 835.699, 185 834.912 C 185 833.962, 186.093 833.484, 188.250 833.490 C 191.694 833.501, 193.013 830.906, 191.459 827.177 C 190.278 824.344, 190.433 819.885, 191.750 818.793 C 193.234 817.561, 193.408 809.203, 192.025 805.565 C 190.965 802.777, 187.346 802.054, 185.200 804.200 C 182.827 806.573, 185.727 794.368, 188.977 788.304 C 190.090 786.228, 191 783.913, 191 783.159 C 191 782.405, 192.125 780.452, 193.500 778.818 C 194.875 777.184, 196 774.588, 196 773.050 C 196 770.132, 199.340 761.590, 201.494 759 C 202.179 758.175, 204.004 754.575, 205.548 751 C 207.093 747.425, 208.951 743.790, 209.678 742.921 C 210.405 742.053, 211 740.354, 211 739.147 C 211 737.734, 211.877 736.617, 213.461 736.015 C 215.336 735.302, 216.319 733.703, 217.596 729.290 C 218.517 726.105, 220.255 722.322, 221.459 720.883 C 222.662 719.443, 224.245 716.822, 224.976 715.057 C 226.257 711.964, 227.642 710.251, 235.991 701.434 C 238.350 698.942, 240.108 695.942, 240.531 693.684 C 240.946 691.472, 241.796 690, 242.657 690 C 245.342 690, 249 685.273, 249.005 681.795 C 249.013 676.582, 253.086 670.796, 257.647 669.520 C 260.707 668.663, 261.882 667.624, 263.354 664.470 C 266.908 656.858, 267.856 656.448, 271.361 661.009 C 273.048 663.204, 275.122 665, 275.970 665 C 277.454 665, 278.689 667.099, 280.972 673.500 C 284.834 684.333, 290.305 688.952, 294 684.500 C 294.685 683.675, 296.119 683, 297.188 683 C 303.744 683, 305.099 672.769, 299.039 669.024 C 298.439 668.653, 297.662 665.942, 297.314 663.001 C 296.823 658.860, 295.926 656.817, 293.340 653.955 C 290.747 651.085, 290 649.378, 290 646.329 C 290 644.168, 289.545 641.945, 288.988 641.388 C 284.770 637.170, 283.867 628, 287.670 628 C 288.376 628, 289.749 626.763, 290.722 625.250 C 291.694 623.737, 293.505 621.680, 294.745 620.677 C 295.985 619.675, 297 618.282, 297 617.582 C 297 616.883, 297.900 615.495, 299 614.500 C 300.100 613.505, 301 612.134, 301 611.453 C 301 610.773, 302.058 609.951, 303.351 609.627 C 304.645 609.302, 307.007 607.121, 308.601 604.779 C 310.196 602.437, 314.040 598.150, 317.144 595.251 C 320.248 592.353, 323.043 588.973, 323.355 587.740 C 323.667 586.508, 325.295 584.897, 326.973 584.161 C 328.652 583.424, 330.509 581.849, 331.101 580.661 C 331.693 579.472, 334.171 576.475, 336.608 574 C 342.990 567.519, 351.204 557.411, 353.341 553.410 C 354.353 551.515, 358.289 547.182, 362.087 543.782 C 365.885 540.381, 369.238 536.827, 369.537 535.883 C 369.837 534.939, 371.419 533.701, 373.054 533.131 C 374.689 532.561, 376.324 531.286, 376.688 530.297 C 377.052 529.309, 377.971 528.126, 378.730 527.669 C 379.489 527.212, 380.525 525.750, 381.031 524.419 C 381.553 523.044, 382.762 522, 383.830 522 C 384.970 522, 386.830 520.229, 388.554 517.500 C 390.230 514.849, 392.149 513, 393.224 513 C 394.228 513, 395.454 511.988, 395.948 510.750 C 396.443 509.512, 398.681 506.587, 400.923 504.248 C 403.166 501.909, 405 499.599, 405 499.115 C 405 498.630, 405.898 497.999, 406.995 497.712 C 408.092 497.425, 409.274 496.450, 409.621 495.546 C 409.968 494.642, 411.432 492.661, 412.876 491.143 C 414.319 489.626, 416.241 487.510, 417.147 486.442 C 418.052 485.374, 420.656 483.164, 422.933 481.531 C 425.209 479.898, 427.315 477.592, 427.613 476.407 C 427.910 475.221, 429.213 473.768, 430.508 473.178 C 431.803 472.588, 433.878 470.732, 435.119 469.053 C 436.360 467.374, 437.965 466, 438.685 466 C 440.336 466, 447.987 459.156, 448.038 457.634 C 448.059 457.010, 450.057 454.948, 452.479 453.052 C 454.901 451.155, 457.143 448.567, 457.460 447.302 C 457.778 446.036, 458.474 445, 459.007 445 C 459.539 445, 461.084 443.243, 462.439 441.097 C 463.794 438.950, 467.400 435.243, 470.452 432.860 C 473.503 430.476, 476 427.733, 476 426.763 C 476 425.793, 476.566 425, 477.257 425 C 477.948 425, 480.761 422.540, 483.507 419.533 C 494.639 407.346, 496.970 405, 497.950 405 C 498.514 405, 500.167 403.112, 501.623 400.805 C 503.080 398.497, 505.673 395.179, 507.386 393.430 C 509.099 391.681, 511.547 388.843, 512.826 387.125 C 514.105 385.406, 515.948 384, 516.921 384 C 518.545 384, 522 381.120, 522 379.766 C 522 379.449, 524.925 376.163, 528.500 372.462 C 532.075 368.762, 535 365.359, 535 364.901 C 535 363.551, 541.947 357, 543.378 357 C 544.952 357, 548 353.815, 548 352.171 C 548 351.527, 548.519 351, 549.153 351 C 550.328 351, 562 339.531, 562 338.376 C 562 338.027, 563.913 335.838, 566.250 333.512 C 570.029 329.751, 577.995 320.308, 579.820 317.427 C 580.194 316.837, 581.288 316.064, 582.250 315.708 C 583.212 315.353, 584 314.458, 584 313.719 C 584 312.981, 585.350 311.378, 587 310.158 C 588.650 308.938, 590 307.050, 590 305.962 C 590 304.232, 590.252 304.141, 592.003 305.234 C 594.492 306.788, 597.483 305.214, 597.535 302.324 C 597.554 301.252, 599.692 298.162, 602.285 295.455 C 604.878 292.749, 607 290.018, 607 289.386 C 607 288.754, 608.553 287.053, 610.452 285.605 C 612.350 284.156, 614.661 281.689, 615.587 280.121 C 616.513 278.554, 618.560 276.510, 620.136 275.579 C 621.711 274.648, 623 273.237, 623 272.443 C 623 271.650, 623.717 271, 624.594 271 C 625.470 271, 626.423 270.100, 626.710 269 C 626.998 267.900, 627.645 267, 628.149 267 C 628.652 267, 629.387 266.133, 629.782 265.074 C 630.737 262.511, 641.226 250.131, 642.505 250.058 C 643.057 250.026, 645.082 248.025, 647.005 245.611 C 648.927 243.198, 651.999 240.189, 653.832 238.926 C 655.664 237.663, 658.121 234.592, 659.292 232.102 C 660.463 229.612, 663.351 225.671, 665.710 223.345 C 668.070 221.019, 670.003 218.752, 670.007 218.308 C 670.011 217.864, 671.586 216.429, 673.507 215.121 C 675.428 213.813, 677 212.125, 677 211.371 C 677 210.617, 677.847 210, 678.881 210 C 680.936 210, 685.381 204.760, 687.050 200.368 C 688.600 196.292, 696.242 187.102, 698.128 187.047 C 700.312 186.984, 701.558 185.295, 702.997 180.444 C 703.718 178.014, 705.062 176.009, 706.350 175.444 C 707.533 174.925, 709.954 171.636, 711.730 168.135 C 715.106 161.484, 725.052 148.578, 728.030 146.984 C 728.981 146.475, 730.440 144.358, 731.273 142.279 C 732.105 140.201, 733.734 137.643, 734.893 136.595 C 736.052 135.547, 737 134.063, 737 133.297 C 737 132.531, 738.034 130.913, 739.298 129.702 C 740.561 128.491, 742.239 125.475, 743.027 123 C 743.814 120.525, 745.269 117.825, 746.259 117 C 747.250 116.175, 748.342 113.700, 748.687 111.500 C 749.304 107.550, 751.413 103.974, 755.696 99.609 C 757.047 98.232, 758.536 94.511, 759.568 89.936 C 760.490 85.846, 761.876 81.261, 762.649 79.748 C 763.422 78.234, 764.327 72.609, 764.660 67.248 C 765.069 60.667, 765.762 56.930, 766.792 55.746 C 768.331 53.976, 767.204 49, 765.264 49 C 764.836 49, 764.618 45.513, 764.780 41.250 C 764.991 35.718, 764.648 32.785, 763.581 31 C 762.759 29.625, 761.624 27.375, 761.059 26 C 758.760 20.404, 757.325 18.484, 755.214 18.180 C 753.994 18.004, 752.531 16.992, 751.963 15.930 C 751.394 14.869, 750.319 14, 749.572 14 C 748.825 14, 747.955 13.325, 747.638 12.500 C 747.322 11.675, 746.164 11, 745.067 11 C 743.969 11, 742.589 10.100, 742 9 C 741.411 7.900, 740.158 6.986, 739.215 6.968 C 738.272 6.951, 736.609 6.263, 735.519 5.439 C 734.301 4.518, 732.510 4.168, 730.865 4.530 C 729.394 4.853, 727.896 4.641, 727.536 4.059 C 727.176 3.476, 725.446 2.986, 723.691 2.968 C 721.936 2.951, 719.626 2.276, 718.559 1.468 C 716.115 -0.380, 651.420 -0.761, 650.810 1.070 M 325.032 212.095 C 325.014 212.972, 324.100 214.505, 323 215.500 C 321.900 216.495, 321 217.975, 321 218.787 C 321 221.584, 316.940 226.825, 313.973 227.860 C 312.338 228.430, 311 229.459, 311 230.148 C 311 231.122, 311.267 231.133, 312.200 230.200 C 312.860 229.540, 314.335 229, 315.477 229 C 318.139 229, 322.221 226.167, 321.423 224.875 C 320.350 223.139, 321.911 219.257, 323.890 218.739 C 326.864 217.961, 328.215 214.663, 326.493 212.388 C 325.302 210.814, 325.058 210.766, 325.032 212.095 M 304.748 223.850 C 303.713 225.601, 303.446 227.103, 304.007 228.011 C 304.687 229.111, 305.131 228.785, 305.973 226.572 C 306.571 224.999, 307.279 223.358, 307.546 222.925 C 307.814 222.492, 307.658 221.907, 307.200 221.623 C 306.742 221.340, 305.638 222.342, 304.748 223.850 M 681.643 456.988 C 680.071 457.481, 678.046 458.532, 677.143 459.324 C 676.239 460.116, 674.499 461.068, 673.276 461.441 C 669.640 462.548, 666.692 467.545, 667.412 471.381 C 667.943 474.215, 667.683 474.823, 665.514 475.812 C 663.627 476.672, 663 477.719, 663 480.014 C 663 481.695, 662.275 484.177, 661.389 485.529 C 655.341 494.760, 666.954 513.089, 674.411 506.083 C 676.397 504.217, 676.833 504.123, 677.341 505.446 C 678.235 507.775, 680.795 507.324, 683.548 504.354 L 686 501.708 686 505.180 C 686 512.172, 697.012 515.495, 698.707 509.014 C 698.970 508.008, 700.012 506.969, 701.024 506.704 C 702.157 506.408, 703.284 504.661, 703.959 502.154 C 704.561 499.916, 705.529 497.791, 706.110 497.432 C 710.120 494.954, 712.593 481.641, 710.617 473.171 C 708.933 465.951, 709 466.291, 709 465 C 709 464.450, 708.084 464, 706.965 464 C 704.909 464, 700.341 461.502, 698.500 459.370 C 697.553 458.274, 694.273 457.417, 687.500 456.498 C 685.850 456.274, 683.214 456.494, 681.643 456.988 M 557.012 470.704 C 555.869 471.505, 554.983 473.276, 554.960 474.807 L 554.920 477.500 553.428 474.750 C 551.674 471.516, 548.064 471.041, 547.304 473.944 C 547.025 475.013, 545.845 476.025, 544.682 476.194 C 540.788 476.758, 539.741 489, 543.586 489 C 544.738 489, 544.951 489.577, 544.418 491.250 C 542.652 496.789, 545.279 499.868, 548.941 496.553 C 550.074 495.528, 551 495.007, 551 495.395 C 551 496.750, 548.118 501.657, 546.566 502.945 C 544.400 504.743, 544.605 509.332, 546.946 511.451 C 548.020 512.423, 549.028 514.835, 549.196 516.833 C 549.771 523.679, 562.370 525.784, 568.154 520 C 569.804 518.350, 571.334 517, 571.553 517 C 575.249 517, 586 501.525, 586 496.206 C 586 494.469, 586.629 492.973, 587.500 492.638 C 589.856 491.734, 589.461 485.933, 587 485.290 C 585.447 484.884, 585 483.926, 585 481.004 C 585 472.224, 565.229 464.948, 557.012 470.704 M 543.193 625.267 C 541.558 627.238, 525.525 629.106, 507.246 629.455 C 496.918 629.653, 491.525 630.149, 490.505 630.996 C 489.402 631.911, 488.646 631.951, 487.676 631.146 C 486.768 630.393, 486.029 630.371, 485.323 631.077 C 484.757 631.643, 481.190 632.245, 477.397 632.414 C 473.604 632.584, 469.150 633.273, 467.500 633.946 C 465.850 634.619, 462.025 635.392, 459 635.662 C 455.975 635.933, 452.600 636.556, 451.500 637.047 C 450.400 637.537, 447.925 638.065, 446 638.219 C 444.075 638.374, 442.574 638.950, 442.665 639.500 C 442.978 641.400, 440.822 643.097, 439.494 641.995 C 438.590 641.245, 437.804 641.649, 436.603 643.483 C 435.696 644.867, 434.402 646.003, 433.727 646.006 C 433.052 646.010, 431.201 646.690, 429.612 647.518 C 428.024 648.346, 424.324 649.722, 421.390 650.575 C 418.455 651.428, 414.696 652.804, 413.034 653.633 C 411.363 654.466, 409.096 654.848, 407.958 654.487 C 405.518 653.712, 401 656.354, 401 658.554 C 401 659.384, 400.212 660.340, 399.250 660.679 C 396.709 661.573, 388.892 664.915, 386.090 666.305 C 383.119 667.778, 373 677.696, 373 679.134 C 373 679.711, 370.525 683.164, 367.500 686.809 C 361.452 694.095, 360.973 695.764, 364.113 698.595 C 365.950 700.252, 366.149 701.237, 365.639 706.150 C 365.147 710.879, 365.436 712.522, 367.410 716.235 C 368.707 718.675, 370.105 722.208, 370.515 724.086 C 370.925 725.963, 372.102 728.573, 373.130 729.885 C 374.159 731.197, 375 733.258, 375 734.465 C 375 735.673, 376.123 738.875, 377.496 741.581 C 378.869 744.286, 379.995 746.950, 380 747.500 C 380.005 748.050, 381.355 750.525, 383 753 C 384.645 755.475, 385.993 758.110, 385.996 758.855 C 385.998 759.600, 387.276 762.101, 388.837 764.413 C 390.397 766.725, 391.970 770.102, 392.334 771.919 C 392.704 773.769, 395.195 777.762, 397.997 780.997 C 400.749 784.173, 403 787.062, 403 787.416 C 403 787.771, 404.575 789.444, 406.500 791.134 C 408.425 792.824, 410 795.072, 410 796.128 C 410 797.257, 411.031 798.441, 412.500 799 C 413.875 799.523, 415 800.473, 415 801.111 C 415 801.749, 416.012 803.267, 417.250 804.485 C 422.315 809.468, 425 812.908, 425 814.410 C 425 816.177, 427.524 816.580, 428.517 814.972 C 428.917 814.326, 430.104 814.638, 431.717 815.812 C 434.377 817.750, 441.038 815.756, 443.236 812.364 C 443.641 811.739, 445.447 810.951, 447.249 810.613 C 449.312 810.226, 450.892 809.167, 451.513 807.755 C 452.056 806.521, 453.400 805.346, 454.500 805.144 C 455.600 804.942, 456.832 804.202, 457.237 803.500 C 457.643 802.798, 459.198 801.916, 460.693 801.541 C 462.187 801.166, 464.019 799.991, 464.762 798.929 C 465.567 797.779, 467.282 797, 469.007 797 C 470.598 797, 472.287 796.310, 472.759 795.466 C 473.780 793.642, 490.636 782.014, 492.327 781.968 C 494.063 781.921, 497.122 779.378, 498.389 776.928 C 499 775.746, 501.267 774.179, 503.428 773.446 C 505.588 772.713, 508.607 771.188, 510.137 770.057 C 511.667 768.926, 513.417 768, 514.026 768 C 516.547 768, 521.792 762.921, 521.283 760.973 C 520.622 758.448, 523.833 757.052, 525.395 759.184 C 526.335 760.468, 526.944 760.185, 529.472 757.286 C 532.024 754.360, 532.990 753.919, 536.310 754.158 C 539.128 754.362, 540.436 753.971, 541.138 752.719 C 541.667 751.773, 543.104 751, 544.332 751 C 545.569 751, 549.521 748.546, 553.191 745.500 C 556.836 742.475, 560.646 739.997, 561.659 739.993 C 562.671 739.990, 564.850 739.063, 566.500 737.934 C 568.150 736.805, 570.400 735.451, 571.500 734.926 C 572.600 734.400, 574.850 733.110, 576.500 732.058 C 578.150 731.007, 580.497 730.113, 581.715 730.073 C 582.933 730.033, 584.411 729.100, 585 728 C 585.589 726.900, 586.906 726, 587.928 726 C 588.950 726, 590.045 725.325, 590.362 724.500 C 590.678 723.675, 591.592 723, 592.392 723 C 593.192 723, 595.119 721.976, 596.673 720.725 C 598.228 719.474, 600.850 717.846, 602.500 717.108 C 604.150 716.370, 606.281 715.369, 607.236 714.883 C 608.191 714.397, 609.546 714, 610.246 714 C 610.946 714, 612.081 713.100, 612.768 712 C 613.456 710.899, 615.100 710, 616.427 710 C 619.715 710, 622 709.022, 622 707.616 C 622 705.239, 625.178 701.778, 626.316 702.916 C 628.878 705.478, 644.948 700.702, 644.987 697.368 C 644.994 696.725, 646.733 696.212, 649.013 696.180 C 653.838 696.114, 658.585 692.980, 656.697 691.107 C 656.039 690.453, 654.552 686.899, 653.393 683.209 C 651.525 677.261, 650.960 676.443, 648.415 675.994 C 646.334 675.627, 645.266 674.664, 644.535 672.494 C 643.299 668.826, 642.281 668.035, 638.773 668.015 C 636.979 668.005, 635.486 667.145, 634.408 665.500 C 633.507 664.125, 632.163 663, 631.420 663 C 630.678 663, 629.589 662.100, 629 661 C 628.411 659.900, 627.326 659, 626.589 659 C 625.852 659, 623.730 656.762, 621.874 654.026 C 620.018 651.290, 617.993 649.040, 617.372 649.026 C 616.752 649.012, 615.676 648.315, 614.981 647.477 C 614.235 646.579, 612.937 646.203, 611.811 646.560 C 610.762 646.893, 609.363 646.721, 608.702 646.178 C 608.041 645.636, 606.375 645.036, 605 644.846 C 603.303 644.611, 602.397 643.777, 602.180 642.250 C 601.984 640.864, 601.167 640, 600.053 640 C 599.058 640, 597.685 639.325, 597 638.500 C 596.315 637.675, 595.010 637, 594.100 637 C 593.190 637, 591.557 636.381, 590.473 635.625 C 589.388 634.869, 586.495 633.914, 584.043 633.503 C 581.592 633.091, 578.295 631.799, 576.715 630.631 C 575.042 629.394, 572.772 628.649, 571.276 628.845 C 569.863 629.030, 567.761 628.709, 566.604 628.132 C 565.447 627.555, 560.900 626.640, 556.500 626.097 C 552.100 625.555, 547.569 624.830, 546.430 624.486 C 545.194 624.113, 543.891 624.427, 543.193 625.267 M 214.410 650.468 C 210.750 651.088, 206.959 652.510, 204.910 654.030 C 203.034 655.422, 199.340 657.113, 196.700 657.789 C 191.417 659.143, 187 661.646, 187 663.286 C 187 665.131, 183.867 667.886, 182.406 667.326 C 181.633 667.029, 181 665.787, 181 664.566 C 181 661.343, 175.241 662.194, 174.400 665.541 C 173.462 669.278, 165.246 675, 160.818 675 C 159.851 675, 158.062 676.350, 156.842 678 C 154.684 680.918, 150.764 682.045, 149.558 680.094 C 148.614 678.567, 144.636 680.055, 142 682.921 C 140.625 684.416, 137.475 686.574, 135 687.718 C 132.525 688.862, 129.409 690.969, 128.076 692.399 C 126.742 693.830, 125.055 695, 124.326 695 C 123.597 695, 123 695.689, 123 696.531 C 123 697.374, 122.213 698.361, 121.250 698.725 C 120.287 699.089, 116.800 701.437, 113.500 703.943 C 110.200 706.449, 106.600 708.999, 105.500 709.608 C 104.400 710.218, 103.449 711.672, 103.387 712.840 C 103.228 715.856, 101.432 717.664, 97.893 718.371 C 96.209 718.708, 93.563 719.887, 92.011 720.992 C 90.460 722.096, 88.542 723, 87.749 723 C 86.956 723, 84.465 725.025, 82.212 727.500 C 79.960 729.975, 77.303 732.001, 76.308 732.003 C 75.259 732.004, 73.661 733.542, 72.500 735.669 C 71.400 737.684, 69.825 739.667, 69 740.076 C 68.175 740.486, 66.150 741.443, 64.500 742.203 C 56.963 745.676, 53.994 748.128, 54.567 750.409 C 55.451 753.933, 51.737 757.870, 49.065 756.242 C 47.929 755.549, 47 755.410, 47 755.933 C 47 756.455, 47.450 757.160, 48 757.500 C 49.892 758.669, 49.020 762.034, 46.531 763.168 C 45.174 763.786, 44.277 764.639, 44.538 765.062 C 45.646 766.855, 39.841 772.113, 38.226 770.779 C 36.878 769.666, 36.747 769.863, 37.211 772.306 C 37.835 775.589, 35.423 778.823, 33.664 777.064 C 31.177 774.577, 27 775.810, 27 779.031 C 27 780.803, 26.377 782.302, 25.500 782.638 C 24.675 782.955, 24 783.918, 24 784.778 C 24 785.639, 23.212 787.214, 22.250 788.279 C 19.091 791.776, 19.848 807.306, 23.311 810.030 C 24.790 811.193, 26 812.718, 26 813.418 C 26 814.117, 26.900 815.505, 28 816.500 C 29.241 817.623, 30 819.580, 30 821.655 C 30 824.536, 30.339 825, 32.443 825 C 33.787 825, 35.475 825.808, 36.193 826.796 C 36.912 827.783, 39.188 829.379, 41.250 830.343 C 43.530 831.407, 45 832.794, 45 833.880 C 45 835.933, 51.688 843, 53.631 843 C 54.345 843, 55.355 843.795, 55.875 844.767 C 57.872 848.499, 72.621 851.367, 75.010 848.488 C 75.971 847.330, 76.589 847.244, 77.645 848.120 C 78.594 848.908, 78.711 849.643, 78.020 850.476 C 76.973 851.737, 80.529 854, 83.558 854 C 84.363 854, 86.929 854.867, 89.261 855.926 C 91.592 856.985, 95.525 858.143, 98 858.499 C 100.475 858.855, 103.926 859.792, 105.668 860.581 C 107.410 861.370, 112.416 862.641, 116.791 863.405 C 121.166 864.169, 125.673 865.290, 126.807 865.897 C 127.941 866.504, 132.161 867.027, 136.184 867.060 C 140.208 867.092, 145.641 867.472, 148.258 867.902 C 151.778 868.482, 153.304 868.339, 154.121 867.354 C 154.729 866.621, 155.626 866.269, 156.113 866.570 C 156.601 866.871, 157 866.416, 157 865.559 C 157 864.702, 157.675 864, 158.500 864 C 159.325 864, 160 864.513, 160 865.140 C 160 866.677, 163.089 868.929, 165.250 868.968 C 166.213 868.986, 167 868.550, 167 868 C 167 867.450, 166.550 867, 166 867 C 165.450 867, 165 866.339, 165 865.530 C 165 864.722, 164.175 862.585, 163.166 860.780 C 158.049 851.627, 155.719 820.663, 159.383 810.500 C 160.375 807.750, 161.559 802.919, 162.015 799.764 C 162.471 796.609, 163.779 792.714, 164.922 791.109 C 166.065 789.504, 167 787.255, 167 786.110 C 167 783.450, 168.967 775.029, 170.118 772.764 C 170.603 771.809, 171.010 769.559, 171.022 767.764 C 171.034 765.969, 171.924 763.375, 173 762 C 174.076 760.625, 174.966 758.923, 174.978 758.219 C 174.990 757.514, 175.675 756.678, 176.500 756.362 C 177.325 756.045, 178 754.799, 178 753.593 C 178 752.387, 178.396 750.973, 178.879 750.450 C 179.363 749.928, 180.328 747.700, 181.024 745.500 C 181.720 743.300, 183.294 740.294, 184.522 738.819 C 185.750 737.344, 187.750 734.082, 188.967 731.569 C 190.183 729.056, 191.553 727, 192.010 727 C 192.467 727, 193.127 725.697, 193.477 724.104 C 193.827 722.511, 194.970 720.432, 196.018 719.484 C 197.065 718.536, 199.339 715.002, 201.071 711.630 C 202.803 708.259, 205.520 704.129, 207.110 702.452 C 208.699 700.776, 210 698.673, 210 697.779 C 210 696.885, 211.575 694.090, 213.500 691.568 C 215.425 689.046, 217 686.347, 217 685.569 C 217 684.792, 218.735 682.658, 220.855 680.828 C 222.988 678.987, 225.256 675.825, 225.932 673.751 C 226.605 671.689, 228.899 668.131, 231.032 665.843 C 233.165 663.556, 235.191 660.406, 235.535 658.842 C 235.878 657.279, 236.699 656, 237.360 656 C 238.662 656, 241.133 650.467, 240.233 649.567 C 239.931 649.265, 239.053 649.541, 238.283 650.180 C 236.560 651.610, 227.575 651.755, 223.500 650.419 C 221.512 649.768, 218.446 649.784, 214.410 650.468 M 220.754 671.250 C 220.083 673.074, 220.968 675, 222.476 675 C 223.985 675, 224.906 673.074, 224.269 671.250 C 224.030 670.563, 223.244 670, 222.524 670 C 221.803 670, 221.007 670.563, 220.754 671.250 M 494 712.500 C 494 713.333, 494.889 714, 496 714 C 497.111 714, 498 713.333, 498 712.500 C 498 711.667, 497.111 711, 496 711 C 494.889 711, 494 711.667, 494 712.500 M 652 722.025 C 651.175 722.524, 648.464 723.812, 645.975 724.888 C 640.983 727.047, 638.405 729.455, 637.827 732.500 C 637.507 734.186, 636.654 734.500, 632.393 734.500 C 629.613 734.500, 626.699 735.015, 625.919 735.643 C 622.924 738.057, 616.849 741, 614.863 741 C 613.722 741, 611.148 742.251, 609.144 743.780 C 607.140 745.308, 603.324 747.671, 600.665 749.030 C 598.006 750.388, 594.856 752.056, 593.665 752.735 C 592.474 753.415, 590.782 753.977, 589.905 753.985 C 589.028 753.993, 587.495 754.900, 586.500 756 C 585.505 757.100, 583.938 758, 583.019 758 C 582.100 758, 580.292 759.125, 579 760.500 C 577.708 761.875, 575.660 763, 574.448 763 C 573.236 763, 571.685 763.675, 571 764.500 C 570.315 765.325, 569.190 766, 568.500 766 C 567.810 766, 566.685 766.675, 566 767.500 C 565.315 768.325, 563.716 769, 562.446 769 C 561.049 769, 559.336 770.124, 558.111 771.844 C 556.297 774.392, 542.611 782, 539.841 782 C 539.262 782, 537.083 783.350, 535 785 C 532.917 786.650, 530.740 788, 530.163 788 C 528.130 788, 521.459 792.489, 517.942 796.222 C 515.985 798.300, 513.960 800.010, 513.442 800.022 C 512.924 800.034, 511.375 800.924, 510 802 C 508.625 803.076, 506.665 803.966, 505.644 803.978 C 504.624 803.990, 502.452 805.125, 500.818 806.500 C 499.184 807.875, 497.036 809, 496.046 809 C 493.499 809, 492.355 810.830, 491.704 815.943 C 491.367 818.589, 490.360 821.017, 489.214 821.943 C 488.156 822.800, 487.014 824.288, 486.676 825.250 C 486.229 826.526, 484.970 827, 482.031 827 C 478.816 827, 478 827.364, 478 828.800 C 478 829.790, 477.511 831.089, 476.913 831.687 C 476.130 832.470, 476.148 832.974, 476.978 833.486 C 477.803 833.996, 477.658 834.720, 476.471 836.032 C 474.505 838.204, 472 837.566, 472 834.893 C 472 832.413, 470.353 832.472, 469 835 C 468.411 836.100, 466.933 837.014, 465.715 837.032 C 463.103 837.069, 460.637 838.804, 459.719 841.250 C 459.358 842.212, 458.599 843, 458.031 843 C 456.178 843, 456.962 844.475, 459.421 845.615 C 461.427 846.545, 462.163 846.393, 463.858 844.697 C 465.465 843.091, 466.189 842.912, 467.313 843.845 C 468.418 844.762, 468.995 844.711, 469.904 843.616 C 470.547 842.841, 471.952 842.436, 473.026 842.717 C 478.299 844.096, 484.003 840.825, 483.744 836.571 C 483.466 832.023, 486.635 829.888, 487.688 833.913 C 488.446 836.815, 496.739 835.661, 500.232 832.168 C 500.874 831.526, 501.895 831, 502.501 831 C 504.631 831, 508.984 828.485, 508.992 827.250 C 508.996 826.563, 509.638 826, 510.418 826 C 511.199 826, 513.710 824.200, 516 822 C 520.556 817.623, 521.111 817.428, 523.958 819.206 C 525.534 820.190, 526.234 820.098, 527.773 818.706 C 528.809 817.768, 530.171 817, 530.798 817 C 531.426 817, 533.415 816.196, 535.220 815.214 C 537.024 814.232, 541.090 812.633, 544.255 811.661 C 547.421 810.689, 551.241 808.754, 552.745 807.361 C 554.249 805.967, 557.059 804.170, 558.990 803.368 C 560.920 802.566, 564.161 800.580, 566.191 798.955 C 568.222 797.330, 570.365 796, 570.955 796 C 572.497 796, 576.362 793.716, 577.300 792.250 C 577.740 791.563, 579.090 791, 580.300 791 C 581.615 791, 583.621 789.595, 585.288 787.506 C 587.320 784.959, 589.138 783.842, 591.992 783.385 C 594.146 783.041, 596.673 781.913, 597.609 780.880 C 598.545 779.846, 599.857 779, 600.526 779 C 601.194 779, 603.487 777.200, 605.621 775.001 C 607.754 772.801, 610.014 771.001, 610.643 771.001 C 611.272 771, 612.047 770.321, 612.365 769.491 C 612.683 768.662, 613.987 767.507, 615.263 766.926 C 616.538 766.345, 618.014 764.923, 618.541 763.767 C 619.068 762.610, 620.359 761.177, 621.410 760.582 C 623.678 759.297, 635 748.443, 635 747.554 C 635 747.214, 638.564 743.319, 642.920 738.898 C 647.276 734.478, 651.098 730.329, 651.413 729.680 C 651.729 729.031, 653.122 726.813, 654.508 724.750 C 657.120 720.864, 655.975 719.621, 652 722.025 M 472.627 782.860 C 471.218 784.417, 471.169 784.895, 472.323 785.853 C 473.381 786.731, 474.082 786.567, 475.373 785.140 C 476.782 783.583, 476.831 783.105, 475.677 782.147 C 474.619 781.269, 473.918 781.433, 472.627 782.860 M 451.042 793.450 C 449.013 795.894, 451.651 798.778, 453.878 796.550 C 455.279 795.150, 455.279 794.850, 453.878 793.450 C 452.478 792.050, 452.204 792.050, 451.042 793.450 M 102 827.300 C 102 828.015, 102.529 829.129, 103.176 829.776 C 104.682 831.282, 107.118 829.470, 106.334 827.427 C 105.649 825.643, 102 825.536, 102 827.300 M 132.110 827.367 C 130.394 829.435, 133.394 831.748, 135.512 829.990 C 137 828.755, 135.956 826, 134 826 C 133.585 826, 132.734 826.615, 132.110 827.367 M 114.505 835.372 C 112.434 836.887, 113.058 840, 115.433 840 C 117.676 840, 119.276 836.474, 117.647 835.122 C 116.690 834.328, 115.841 834.396, 114.505 835.372 M 430 854.987 C 430 855.529, 428.480 856.608, 426.622 857.385 C 424.764 858.161, 422.878 859.404, 422.430 860.148 C 421.754 861.271, 421.890 861.278, 423.234 860.189 C 424.124 859.468, 425.448 858.996, 426.176 859.139 C 429.856 859.866, 434.796 857.936, 434.283 855.974 C 433.766 853.997, 430 853.129, 430 854.987 M 414.200 860.200 C 412.338 862.062, 412.778 863.171, 415.240 862.820 C 416.472 862.644, 417.630 861.712, 417.813 860.750 C 418.195 858.744, 415.991 858.409, 414.200 860.200 M 152 861.500 C 152 862.333, 152.889 863, 154 863 C 155.111 863, 156 862.333, 156 861.500 C 156 860.667, 155.111 860, 154 860 C 152.889 860, 152 860.667, 152 861.500 M 448.731 877.303 C 448.129 878.834, 446.951 879.075, 440.942 878.900 C 434.946 878.724, 433.546 879.010, 431.789 880.766 C 430.086 882.469, 429.380 882.631, 427.835 881.670 C 426.349 880.746, 425.381 880.830, 423.227 882.072 C 420.461 883.667, 417.589 885.203, 414.040 886.984 C 412.961 887.525, 411.432 887.719, 410.641 887.416 C 409.850 887.112, 408.911 887.335, 408.555 887.911 C 408.112 888.628, 407.308 888.585, 406.010 887.774 C 404.475 886.816, 403.753 886.914, 402.238 888.285 C 401.111 889.304, 398.794 889.958, 396.432 889.924 C 383.741 889.738, 378.604 891.392, 375.963 896.514 C 374.637 899.086, 373.908 899.472, 370.659 899.325 C 367.605 899.188, 366.732 899.575, 366.050 901.369 C 364.916 904.350, 362.376 906.418, 361.530 905.049 C 360.463 903.322, 359.152 903.864, 359.663 905.820 C 360.218 907.943, 357.548 910.695, 356.530 909.049 C 355.512 907.401, 354.281 907.816, 353.710 910 C 353.377 911.273, 352.335 912.008, 350.844 912.022 C 349.193 912.037, 348.056 912.994, 347 915.258 C 346.003 917.395, 344.463 918.762, 342.407 919.336 C 340.641 919.829, 338.578 921.445, 337.600 923.100 C 336.453 925.041, 335.079 926, 333.443 926 C 332.063 926, 331 926.585, 331 927.345 C 331 929.113, 327.761 932, 325.778 932 C 324.918 932, 323.955 932.675, 323.638 933.500 C 323.322 934.325, 322.123 935, 320.975 935 C 317.746 935, 308.628 944.516, 308.198 948.336 C 307.572 953.890, 302.772 957.184, 301.218 953.126 C 300.627 951.584, 300.057 951.425, 298 952.224 L 295.500 953.196 297.750 954.066 C 301.028 955.333, 300.608 958.634, 296.928 960.537 C 294.372 961.859, 293.584 961.905, 292.236 960.813 C 291.345 960.091, 290.923 960.012, 291.297 960.637 C 291.672 961.262, 291.352 962.293, 290.587 962.928 C 289.822 963.563, 288.915 965.204, 288.570 966.576 C 288.024 968.754, 284.834 970.959, 281.500 971.463 C 279.974 971.694, 276.675 973.033, 275 974.101 C 274.175 974.627, 272.712 975.322, 271.750 975.646 C 269.674 976.343, 269.652 976.470, 271.190 978.932 C 272.794 981.501, 270.724 984, 266.993 984 C 265.170 984, 263.688 984.827, 262.637 986.431 C 261.725 987.823, 259.858 988.999, 258.272 989.181 C 256.317 989.406, 255.409 990.139, 255.191 991.666 C 255.009 992.944, 252.868 995.199, 249.967 997.166 C 247.264 999, 245.040 1001.197, 245.026 1002.050 C 244.992 1004.098, 243.013 1006, 240.917 1006 C 239.991 1006, 238.998 1006.900, 238.710 1008 C 238.423 1009.100, 237.470 1010, 236.594 1010 C 234.612 1010, 231.417 1013.110, 230.531 1015.902 C 230.164 1017.057, 228.883 1018.523, 227.682 1019.160 C 224.260 1020.975, 218.737 1030, 221.048 1030 C 222.572 1030, 222.146 1033.634, 220.458 1035.035 C 219.289 1036.005, 218.634 1036.034, 217.758 1035.158 C 215.282 1032.682, 209 1038.627, 209 1043.445 C 209 1044.262, 208.100 1045.411, 207 1046 C 205.900 1046.589, 205 1046.755, 205 1046.369 C 205 1045.983, 203.228 1047.586, 201.063 1049.932 C 198.898 1052.277, 196.648 1053.900, 196.063 1053.539 C 195.456 1053.164, 195 1053.690, 195 1054.767 C 195 1055.803, 193.899 1057.685, 192.554 1058.949 C 191.209 1060.213, 189.971 1062.654, 189.804 1064.373 C 189.599 1066.483, 188.765 1067.822, 187.241 1068.491 C 185.998 1069.036, 184.750 1070.213, 184.466 1071.107 C 184.182 1072.001, 181.706 1074.127, 178.963 1075.832 C 175.986 1077.683, 173.570 1080.054, 172.968 1081.716 C 172.413 1083.247, 171.559 1085.400, 171.070 1086.500 C 170.581 1087.600, 169.930 1089.287, 169.622 1090.250 C 169.314 1091.213, 168.162 1092, 167.061 1092 C 165.961 1092, 164.062 1093.350, 162.842 1095 C 161.622 1096.650, 160.063 1098, 159.378 1098 C 158.693 1098, 157.990 1099.237, 157.816 1100.750 C 157.590 1102.719, 156.861 1103.591, 155.250 1103.820 C 153.435 1104.077, 153 1104.778, 153 1107.447 C 153 1109.267, 152.325 1111.315, 151.500 1112 C 150.675 1112.685, 150 1114.311, 150 1115.614 C 150 1116.923, 149.085 1118.546, 147.955 1119.242 C 146.831 1119.934, 144.534 1122.638, 142.851 1125.250 C 141.168 1127.862, 139.388 1130, 138.896 1130 C 138.403 1130, 138 1131.035, 138 1132.300 C 138 1133.565, 137.508 1135.092, 136.907 1135.693 C 136.117 1136.483, 136.141 1137.395, 136.993 1138.987 C 138.266 1141.365, 135.181 1146, 132.326 1146 C 131.540 1146, 131 1147.142, 131 1148.801 C 131 1150.819, 129.742 1152.802, 126.500 1155.891 C 124.025 1158.250, 122 1160.954, 122 1161.899 C 122 1162.844, 121.339 1164.491, 120.532 1165.559 C 118.289 1168.524, 118.588 1172.659, 121.092 1173.314 C 123.766 1174.013, 122.935 1186.632, 119.740 1193.856 C 117.920 1197.969, 117.847 1199.071, 118.894 1206.560 C 119.689 1212.237, 119.727 1215.587, 119.021 1217.445 C 118.459 1218.922, 118 1221.268, 118 1222.659 C 118 1224.332, 117.335 1225.361, 116.033 1225.702 C 114.951 1225.984, 113.796 1227.067, 113.466 1228.108 C 113.135 1229.149, 112.494 1230, 112.041 1230 C 111.588 1230, 110.949 1231.068, 110.621 1232.372 C 109.888 1235.295, 112.578 1241, 114.690 1241 C 115.842 1241, 116.092 1241.697, 115.676 1243.750 C 114.849 1247.834, 117.421 1255.212, 122.561 1263.500 C 123.926 1265.700, 125.334 1268.175, 125.691 1269 C 126.048 1269.825, 127.378 1271.759, 128.646 1273.298 C 129.914 1274.837, 131.689 1277.650, 132.590 1279.548 C 133.491 1281.447, 134.621 1283, 135.101 1283 C 135.942 1283, 140.094 1288.735, 142.805 1293.639 C 143.522 1294.938, 144.727 1296, 145.482 1296 C 147.285 1296, 151 1300.771, 151 1303.087 C 151 1304.101, 152.889 1306.203, 155.273 1307.844 C 157.624 1309.461, 160.175 1311.958, 160.942 1313.392 C 161.710 1314.826, 163.129 1316, 164.096 1316 C 165.064 1316, 166.710 1317.088, 167.756 1318.417 C 168.802 1319.746, 170.972 1320.984, 172.579 1321.167 C 174.921 1321.434, 175.563 1322.045, 175.816 1324.249 C 176.086 1326.588, 176.709 1327.090, 180.004 1327.617 C 183.909 1328.241, 188.464 1331.440, 187.551 1332.917 C 187.280 1333.356, 189.182 1334.729, 191.779 1335.967 C 194.376 1337.206, 197.281 1338.620, 198.236 1339.109 C 199.191 1339.599, 200.584 1340, 201.331 1340 C 202.079 1340, 203.505 1340.900, 204.500 1342 C 205.495 1343.100, 207.028 1344.006, 207.905 1344.012 C 208.782 1344.019, 211.432 1345.819, 213.793 1348.012 C 216.155 1350.206, 218.710 1352, 219.472 1352 C 220.233 1352, 223.533 1353.594, 226.804 1355.543 C 230.075 1357.491, 234.470 1359.364, 236.570 1359.705 C 238.671 1360.046, 241.940 1361.377, 243.835 1362.662 C 245.729 1363.948, 248.061 1365, 249.017 1365 C 249.973 1365, 251.315 1365.675, 252 1366.500 C 252.685 1367.325, 254.771 1368, 256.636 1368 C 258.501 1368, 260.921 1368.450, 262.014 1369 C 263.106 1369.550, 264.946 1370.482, 266.102 1371.072 C 267.257 1371.661, 270.955 1372.587, 274.317 1373.129 C 277.680 1373.670, 280.897 1374.491, 281.466 1374.952 C 286.002 1378.631, 292.731 1381.175, 299.305 1381.695 C 303.262 1382.008, 307.175 1382.829, 308 1383.520 C 308.825 1384.211, 312.783 1385.352, 316.795 1386.056 C 320.807 1386.760, 324.321 1387.711, 324.604 1388.168 C 324.887 1388.626, 326.865 1389, 329 1389 C 331.135 1389, 333.160 1389.450, 333.500 1390 C 333.840 1390.550, 337.496 1391, 341.625 1391 C 345.753 1391, 350.021 1391.476, 351.108 1392.058 C 352.195 1392.639, 355.428 1393.153, 358.292 1393.200 C 361.156 1393.246, 364.312 1393.700, 365.305 1394.207 C 366.298 1394.714, 369.956 1395.267, 373.434 1395.436 C 376.912 1395.604, 381.832 1396.534, 384.368 1397.503 C 388.088 1398.923, 389.268 1399.023, 390.480 1398.017 C 392.110 1396.664, 400.575 1397.426, 402.623 1399.110 C 403.240 1399.618, 409.893 1400.234, 417.407 1400.479 C 424.922 1400.724, 431.499 1401.190, 432.024 1401.515 C 432.550 1401.840, 435.537 1401.632, 438.663 1401.055 C 443.458 1400.168, 444.621 1400.252, 446.099 1401.589 C 447.529 1402.884, 450.115 1403.135, 460.175 1402.960 C 466.954 1402.842, 474.661 1402.772, 477.302 1402.806 C 481.448 1402.859, 482.255 1402.535, 483.212 1400.434 C 484.778 1396.996, 486.295 1397.400, 488.842 1401.933 C 491.212 1406.149, 493.912 1406.562, 501.190 1403.821 C 502.669 1403.263, 504.469 1403.177, 505.190 1403.629 C 505.910 1404.080, 507.333 1404.313, 508.350 1404.145 C 509.368 1403.978, 511.506 1404.381, 513.101 1405.042 C 515.035 1405.843, 516.418 1405.914, 517.251 1405.256 C 517.938 1404.713, 521.650 1403.960, 525.500 1403.583 C 529.626 1403.179, 533.904 1402.070, 535.919 1400.883 C 538.107 1399.594, 540.212 1399.087, 541.765 1399.477 C 543.099 1399.812, 544.711 1399.678, 545.346 1399.180 C 545.981 1398.681, 548.419 1397.980, 550.764 1397.622 C 553.109 1397.265, 555.922 1396.078, 557.014 1394.986 C 558.106 1393.894, 559.985 1393, 561.190 1393 C 564.470 1393, 575.253 1390.912, 577.236 1389.892 C 578.191 1389.402, 580.951 1389, 583.370 1389 C 586.984 1389, 587.864 1388.629, 588.311 1386.917 C 588.727 1385.329, 589.526 1384.902, 591.678 1385.119 C 593.230 1385.276, 595.703 1384.610, 597.173 1383.638 C 598.642 1382.666, 602.467 1381.607, 605.673 1381.283 C 610.003 1380.846, 612.066 1380.092, 613.702 1378.348 C 614.913 1377.056, 616.553 1376, 617.345 1376 C 618.138 1376, 619.045 1375.325, 619.362 1374.500 C 619.678 1373.675, 621.028 1373, 622.362 1373 C 623.695 1373, 625.045 1372.325, 625.362 1371.500 C 625.678 1370.675, 626.851 1370, 627.969 1370 C 629.086 1370, 630 1369.562, 630 1369.026 C 630 1368.490, 631.318 1367.370, 632.929 1366.537 C 634.540 1365.704, 636.002 1364.051, 636.179 1362.863 C 636.356 1361.676, 637.175 1360.391, 638 1360.008 C 638.825 1359.624, 640.506 1358.791, 641.736 1358.155 C 642.966 1357.520, 644.665 1357, 645.511 1357 C 646.357 1357, 647.477 1355.875, 648 1354.500 C 648.717 1352.614, 649.674 1352, 651.899 1352 C 654.941 1352, 661 1347.780, 661 1345.661 C 661 1344.226, 666.782 1339.521, 669.672 1338.604 C 670.843 1338.232, 672.083 1336.807, 672.427 1335.435 C 672.810 1333.910, 674.400 1332.300, 676.526 1331.286 C 678.570 1330.312, 680 1328.897, 680 1327.850 C 680 1326.871, 681.288 1324.591, 682.862 1322.785 C 686.214 1318.938, 690.312 1310.755, 692.763 1303.011 C 694.028 1299.013, 695.214 1297.181, 697.131 1296.264 C 700.274 1294.760, 701.842 1289.664, 703.058 1277.006 C 703.769 1269.601, 704.202 1268.250, 706.437 1266.469 C 708.923 1264.486, 709 1264.075, 709 1252.835 C 709 1244.108, 709.347 1240.957, 710.403 1240.080 C 713.007 1237.920, 709.600 1198.826, 706.475 1195 C 705.046 1193.250, 703.581 1186.867, 701.905 1175.083 C 701.246 1170.453, 700.101 1165.503, 699.360 1164.083 C 698.619 1162.662, 698.010 1159.585, 698.006 1157.243 C 698.001 1153.954, 697.432 1152.493, 695.500 1150.813 C 694.125 1149.618, 693 1147.665, 693 1146.475 C 693 1145.284, 692.100 1143.495, 691 1142.500 C 689.900 1141.505, 689 1140.136, 689 1139.459 C 689 1138.782, 688.328 1136.940, 687.506 1135.364 C 686.685 1133.789, 686.010 1131.782, 686.006 1130.905 C 686.003 1130.028, 685.100 1128.495, 684 1127.500 C 682.900 1126.505, 682 1125.137, 682 1124.462 C 682 1123.786, 681.100 1122.998, 680 1122.710 C 678.715 1122.374, 678 1121.346, 678 1119.833 C 678 1118.539, 676.875 1116.266, 675.500 1114.783 C 674.125 1113.301, 673 1111.820, 673 1111.494 C 673 1111.168, 671.425 1109.279, 669.500 1107.297 C 667.575 1105.315, 666 1103.060, 666 1102.287 C 666 1101.513, 664.386 1098.770, 662.413 1096.190 C 660.440 1093.611, 658.181 1090.150, 657.392 1088.500 C 656.604 1086.850, 654.850 1083.700, 653.496 1081.500 C 652.141 1079.300, 651.025 1076.713, 651.016 1075.750 C 651.007 1074.787, 650.391 1074, 649.646 1074 C 648.901 1074, 645.413 1070.758, 641.896 1066.796 C 638.378 1062.833, 634.230 1058.221, 632.679 1056.546 C 631.127 1054.871, 629.231 1052.317, 628.466 1050.871 C 627.700 1049.425, 626.415 1047.989, 625.609 1047.680 C 624.803 1047.371, 623.999 1045.866, 623.822 1044.336 C 623.567 1042.130, 622.774 1041.340, 620 1040.527 C 615.088 1039.086, 614 1038.204, 614 1035.660 C 614 1034.110, 613.093 1033.096, 611 1032.306 C 608.965 1031.538, 608 1030.491, 608 1029.052 C 608 1026.040, 605.102 1022, 602.942 1022 C 600.890 1022, 598 1018.429, 598 1015.894 C 598 1014.981, 597.100 1013.998, 596 1013.710 C 594.900 1013.423, 594 1012.470, 594 1011.594 C 594 1010.717, 593.438 1009.985, 592.750 1009.967 C 591.201 1009.926, 587 1006.503, 587 1005.282 C 587 1004.789, 585.250 1003.613, 583.110 1002.669 C 580.935 1001.709, 578.985 1000.049, 578.685 998.902 C 578.390 997.774, 577.192 996.601, 576.023 996.296 C 574.691 995.947, 573.684 994.669, 573.324 992.870 C 573.008 991.292, 572.166 990, 571.453 990 C 570.740 990, 568.658 988.266, 566.828 986.147 C 564.998 984.028, 561.749 981.472, 559.609 980.466 C 557.469 979.461, 555.518 977.873, 555.273 976.938 C 555.019 975.963, 552.836 974.601, 550.164 973.750 C 547.253 972.822, 545.368 971.593, 545.148 970.481 C 544.954 969.501, 543.491 967.601, 541.898 966.260 C 540.304 964.919, 539 963.193, 539 962.425 C 539 961.656, 537.425 960.369, 535.500 959.564 C 533.575 958.760, 531.986 957.517, 531.968 956.801 C 531.901 954.020, 526.908 949.698, 523.863 949.785 C 522.137 949.834, 520.656 949.267, 520.337 948.435 C 520.034 947.646, 518.988 947, 518.012 947 C 517.036 947, 515.110 945.538, 513.732 943.750 C 506.735 934.673, 493.356 922, 490.770 922 C 487.453 922, 486.573 920.613, 486.855 915.827 C 487.051 912.512, 486.762 911.978, 484.456 911.400 C 482.519 910.913, 481.962 910.253, 482.324 908.871 C 482.593 907.842, 482.481 907, 482.076 907 C 480.718 907, 473.389 899.531, 472.018 896.750 C 471.272 895.237, 469.890 894, 468.945 894 C 464.005 894, 455.670 887.402, 456.345 884.026 C 456.814 881.681, 456.439 881.153, 453.483 879.993 C 451.612 879.259, 449.937 877.948, 449.761 877.079 C 449.492 875.751, 449.328 875.787, 448.731 877.303" stroke="none" fill="#000000" fill-rule="evenodd"/></svg>