<svg xmlns="http://www.w3.org/2000/svg" width="1025" height="1429" xmlns:v="https://vecta.io/nano"><path d="M650.81 1.07c-.197.59-5.253 1.495-11.288 2.019-6.421.557-11.856 1.555-13.174 2.419-1.234.808-2.948 1.199-3.808.869s-2.122-.159-2.803.38c-1.457 1.156-9.618 2.368-15.079 2.241-2.113-.05-4.363.32-5 .821s-3.633 1.201-6.658 1.556c-24.213 2.844-29.183 3.781-35.5 6.695-2.2 1.014-6.025 2.155-8.5 2.535s-5.388 1.299-6.473 2.043S539.765 24 538.798 24c-2.516 0-14.614 3.852-19.143 6.096-2.114 1.047-4.968 1.904-6.342 1.904s-3.642.9-5.04 2-4.002 2-5.785 2-3.803.675-4.488 1.5-2.288 1.5-3.563 1.5-2.58.422-2.898.937-3.014 2.089-5.991 3.497c-3.06 1.447-5.688 3.43-6.047 4.563-.448 1.41-1.513 2.003-3.6 2.003-1.712 0-3.207.634-3.539 1.5-.317.825-1.189 1.5-1.938 1.5-1.596 0-9.207 3.84-9.93 5.01-.273.441-1.283.597-2.245.345-1.048-.273-3.222.893-5.422 2.909-2.021 1.851-5.561 3.988-7.867 4.749s-5.126 2.645-6.265 4.186S436.103 73 435.467 73s-1.972.9-2.967 2-2.528 2.007-3.405 2.016-3.395 1.118-5.595 2.463-5.012 2.902-6.25 3.459-2.25 1.463-2.25 2.014c0 1.217-7.686 5.048-10.129 5.048-.964 0-2.031.45-2.371 1s-1.472 1-2.516 1-3.155 1.575-4.691 3.5-3.243 3.505-3.793 3.511c-1.01.01-8.148 6.456-12.198 11.015-3.496 3.936-7.655 7.527-9.552 8.247-.962.365-1.75 1.353-1.75 2.196s-.689 1.531-1.531 1.531-1.831.788-2.196 1.75-1.927 2.863-3.469 4.223-2.804 3.047-2.804 3.75c0 1.922-3.366 4.901-6.398 5.662-1.478.371-2.962 1.449-3.297 2.395s-2.34 3.424-4.457 5.507-3.848 4.59-3.848 5.571c0 1.724-9.993 12.508-13.657 14.737-.99.603-2.096 2.541-2.457 4.306s-1.35 3.748-2.198 4.405-2.503 3.076-3.68 5.376-2.784 4.718-3.573 5.372-1.435 1.745-1.435 2.422-1.025 2.338-2.278 3.69-2.914 4.386-3.692 6.744c-.917 2.779-2.226 4.594-3.722 5.163-1.272.483-2.308 1.715-2.308 2.742s-1.125 2.377-2.5 3.003c-1.848.842-2.5 1.912-2.5 4.102 0 1.629-.45 3.24-1 3.58s-1 2.828-1 5.529c0 3.057-.755 6.254-2 8.471-1.1 1.958-2.011 5.235-2.024 7.28s-.438 5.52-.942 7.72c-1.766 7.703.71 15.443 5.466 17.087 5.495 1.9 11.403 1.829 12.16-.145.483-1.258.819-1.114 1.748.75 3.46 6.944 13.159 4.245 12.253-3.409l-.567-4.783h3.831c4.533 0 6.512-1.935 5.798-5.671-.304-1.586.057-3.252.882-4.077.767-.767 1.395-2.433 1.395-3.701s.675-2.866 1.5-3.551c2.391-1.984 1.978-8.888-.588-9.837-1.877-.694-1.928-.905-.5-2.09.873-.725 1.588-1.96 1.588-2.744s.9-3.288 2-5.565c3.188-6.598.452-12.461-5.233-11.213-3.346.735-3.291.411.881-5.234 1.293-1.751 2.352-3.475 2.352-3.831s1.524-2.973 3.387-5.817 3.722-6.294 4.131-7.669c1.009-3.388 3.997-7.661 8.896-12.72 8.914-9.204 23.586-26.159 23.586-27.255 0-.436.849-1.014 1.886-1.285s2.505-1.786 3.26-3.367c.824-1.725 2.314-3.007 3.729-3.208 1.296-.184 2.556-1.098 2.8-2.032s1.826-2.309 3.515-3.057 3.267-2.108 3.506-3.023 1.703-2.143 3.252-2.727 3.432-2.347 4.185-3.916 2.376-3.355 3.61-3.97 3.034-1.83 4-2.701 3.328-1.73 5.249-1.911c2.568-.241 3.582-.857 3.834-2.328.501-2.925 3.053-4.5 7.293-4.5 2.794 0 4.232-.63 5.702-2.5 1.082-1.375 2.926-2.5 4.098-2.5 1.352 0 2.478-.913 3.081-2.5.523-1.375 1.673-2.5 2.556-2.5 1.757 0 10.714-5.677 14.597-9.251 1.344-1.237 4.222-2.869 6.395-3.626 4.981-1.735 6.452-2.907 6.452-5.137 0-1.927 3.042-3.064 9.297-3.476 2.089-.138 4.789-1.142 6-2.231S485.175 70 486 69.636s3.5-1.79 5.943-3.168 6.248-2.795 8.454-3.148c2.854-.456 5.316-1.892 8.539-4.98 2.491-2.387 5.248-4.34 6.127-4.34s3.761-1.095 6.404-2.433c4.168-2.11 5.088-2.258 6.92-1.114 3.353 2.094 8.735 1.796 9.34-.517.496-1.896 1.437-2.354 4.097-1.994.728.099 1.853-.236 2.5-.743 2.361-1.854 6.441-2.255 7.04-.692.914 2.381 5.535 1.854 6.627-.757 2.472-5.912 11.218-9.882 12.338-5.601.266 1.018 1.356 1.851 2.422 1.851 2.544 0 5.563-3.286 4.237-4.612-.646-.646 3.426-1.384 11.846-2.147 7.057-.64 14.015-1.613 15.463-2.164 1.677-.637 2.848-.651 3.227-.039 1.24 2.007 10.618 1.136 11.186-1.038.515-1.967 3.716-2.651 9.965-2.129 1.196.099 2.46-.281 2.809-.845S633.194 28 634.509 28s2.751-.608 3.191-1.351c.517-.874 3.779-1.574 9.233-1.983 4.638-.347 8.89-1.089 9.45-1.649S658.876 22 660.68 22s5.094-.726 7.311-1.613c2.701-1.081 4.44-1.291 5.27-.636 1.83 1.443 18.136 2.452 19.389 1.199.709-.709 2.41-.687 5.441.07 2.425.606 4.972 1.056 5.659.999 7.45-.611 11.267.492 15.325 4.431 2.666 2.587 4.521 3.627 5.85 3.28 1.07-.28 2.806.094 3.857.83s2.826 1.27 3.944 1.186c8.65-.652 15.244 27.021 8.786 36.875-.915 1.397-2.318 5.091-3.118 8.209s-2.517 7.92-3.816 10.67-2.655 6.686-3.014 8.747-1.662 4.834-2.894 6.164c-2.296 2.478-2.948 3.65-6.555 11.796-1.147 2.588-2.991 5.192-4.1 5.785-1.203.644-2.015 2.095-2.015 3.603 0 2.306-4.161 8.957-8.685 13.881-10.552 11.487-18.79 21.671-20.024 24.755-.83 2.073-1.866 3.769-2.302 3.769s-2.407 2.429-4.377 5.397-6.464 8.307-9.987 11.865-6.689 7.364-7.037 8.46-1.467 2.394-2.488 2.885-3.741 3.143-6.044 5.893c-3.714 4.434-13.764 15.603-16.044 17.831l-3.681 3.595c-1.557 1.52-4.631 4.932-6.831 7.582s-4.477 5.307-5.06 5.905c-4.678 4.8-12.44 14.818-12.44 16.057 0 .841-.686 1.53-1.525 1.53s-1.916 1.03-2.395 2.289c-.877 2.308-11.142 11.711-12.784 11.711-.487 0-2.665 2.34-4.841 5.2-4.132 5.433-12.109 14.442-25.499 28.8-4.36 4.675-10.071 11.061-12.692 14.19s-6.01 6.657-7.534 7.839-3.431 3.426-4.239 4.988-2.262 3.094-3.23 3.402-3.336 2.654-5.261 5.213c-4.832 6.423-14.985 16.412-17.748 17.462-1.259.479-2.685 1.891-3.171 3.138s-3.454 4.968-6.598 8.268-6.477 6.963-7.407 8.14-2.553 2.305-3.608 2.508-2.436 1.41-3.07 2.681-2.107 2.979-3.275 3.797-2.123 2.046-2.123 2.73c0 2.235-9.338 12.331-19.557 21.144-9.916 8.552-14.124 12.908-14.931 15.455-.795 2.512-13.933 16.045-15.576 16.045-.5 0-1.564 1.462-2.365 3.25-2.048 4.573-5.79 8.397-9.898 10.113-1.931.807-4.071 2.518-4.753 3.802-1.639 3.082-7.815 8.784-10.767 9.94-1.29.506-2.58 1.814-2.866 2.907S401.95 470 400.951 470c-1.983 0-5.951 4.892-5.951 7.337 0 .841-.861 1.801-1.912 2.135-1.766.561-11.088 10.597-11.088 11.937 0 .325-.787 1.418-1.75 2.429-3.782 3.973-11.768 13.393-12.083 14.253-.184.5-.778.909-1.321.909-1.827 0-10.971 8.402-14.662 13.472-2.013 2.766-6.703 8.138-10.422 11.938S335 541.872 335 542.545s-1.125 1.962-2.5 2.863-2.5 2.194-2.5 2.875-.9 1.798-2 2.485-2 2.145-2 3.24-.54 1.992-1.199 1.992c-1.668 0-7.44 5.549-17.526 16.849-2.626 2.943-6.35 6.993-8.275 9s-4.314 4.913-5.308 6.455-2.629 3.117-3.632 3.5c-2.43.927-8.924 8.807-9.653 11.712-.319 1.271-1.554 2.556-2.744 2.856s-4.384 3.489-7.099 7.087-5.19 6.611-5.5 6.698-1.914.34-3.564.566c-5.375.733-6.771.664-25.29-1.26-5.231-.544-8.056-.396-10 .523-3.969 1.877-6.399 2.809-9.21 3.531-3.656.939-8.823 3.388-9.517 4.51-.33.535-1.898.973-3.483.973s-3.16.45-3.5 1-1.713 1-3.051 1c-1.349 0-2.988.89-3.681 2-.881 1.411-2.332 2-4.926 2-2.023 0-5.918 1.125-8.655 2.5s-5.849 2.5-6.915 2.5c-1.131 0-2.942 1.539-4.354 3.699-1.983 3.034-3.393 3.944-7.837 5.061-2.981.748-6.529 2.234-7.885 3.301s-3.7 1.939-5.208 1.939-3.303.675-3.988 1.5-1.853 1.5-2.597 1.5-2.05 1.35-2.903 3c-1.057 2.043-2.301 3-3.903 3-1.294 0-2.912.675-3.597 1.5s-2.27 1.5-3.522 1.5-4.617 1.575-7.478 3.5-5.673 3.5-6.25 3.5-3.409 2.475-6.292 5.5-5.751 5.5-6.372 5.5-1.617 1.07-2.213 2.379c-.71 1.559-1.69 2.22-2.842 1.919-1.822-.477-6.031 3.864-6.031 6.218 0 .686-2.039 1.76-4.532 2.388-3.232.814-4.857 1.855-5.667 3.633-.827 1.815-2.187 2.661-5.005 3.112-2.129.34-4.416 1.375-5.083 2.301s-2 1.975-2.963 2.334-1.75 1.342-1.75 2.185c0 .858-.868 1.531-1.974 1.531-1.183 0-2.597 1.204-3.526 3-.853 1.65-2.254 3-3.113 3s-2.07 1.35-2.693 3-1.708 3-2.412 3-3.134 1.8-5.401 4-4.743 4-5.502 4-1.379.45-1.379 1-1.295 1-2.878 1c-3.508 0-4.729 1.357-5.649 6.276-.577 3.088-1.511 4.248-5.123 6.365-2.429 1.424-5.031 3.775-5.781 5.226s-2.31 3.494-3.467 4.54-2.12 2.396-2.143 2.998-1.372 2.653-3 4.557S8 767.949 8 768.59s-.71 1.754-1.578 2.475C1.039 775.532-3.886 817 .966 817c.569 0 1.034.591 1.034 1.313s1.35 2.606 3 4.187 3 3.733 3 4.782 1.35 4.368 3 7.375 3 6.06 3 6.786 1.688 2.592 3.75 4.146 4.906 3.971 6.318 5.369C30.149 856.976 35.794 862 36.476 862c.405 0 1.621 1.125 2.703 2.5 1.208 1.537 2.998 2.509 4.644 2.523 1.472.013 6.698 2.038 11.613 4.5S65.324 876 66.486 876s2.642.528 3.287 1.173c.876.876 1.793.89 3.624.056 1.892-.862 2.7-.817 3.543.199.601.723 3.015 1.532 5.366 1.797s5.831 1.174 7.734 2.02 5.71 2.09 8.46 2.764 9.5 2.594 15 4.265 12.351 3.092 15.225 3.157 5.776.67 6.45 1.344c1.814 1.814 3.4 1.497 5.066-1.011 1.268-1.91 1.718-2.043 3.086-.907 1.029.853 3.852 1.254 7.887 1.121 11.646-.385 13.513-.131 14.048 1.916.593 2.269 6.384 3.86 8.037 2.207 2.144-2.144 4.77-1.18 6.216 2.281 1.545 3.697 2.436 4.015 14.599 5.214 3.947.389 6.857.26 7.215-.319.709-1.147 20.219 1.182 22.924 2.736.964.554 4.789 1.041 8.5 1.082 18.366.203 21.778.453 22.547 1.654.934 1.462 5.316 1.681 6.164.309.32-.518 3.244-.74 6.496-.494s6.168.039 6.477-.463 2.355-.67 4.545-.377c2.945.395 4.128.152 4.546-.936.458-1.193 1.581-1.311 5.954-.626 4.666.732 5.886.554 9.071-1.326 3.369-1.987 3.759-2.03 4.613-.504 1.162 2.076 4.699 2.184 5.472.168.404-1.053 2.046-1.5 5.504-1.5h4.928l-3.285 2.776c-1.807 1.527-4.635 3.43-6.285 4.229s-4.651 3.037-6.67 4.974c-12.712 12.197-19.61 17.992-25.016 21.018-1.477.827-4.985 3.64-7.796 6.253s-5.511 4.75-6 4.75-2.155 1.794-3.703 3.986-3.607 4.249-4.576 4.571-2.413 1.846-3.21 3.387-2.367 3.042-3.489 3.335c-1.392.364-2.04 1.358-2.04 3.127 0 1.855-.526 2.594-1.845 2.594-2.24 0-5.155 3.027-5.155 5.353 0 .933-1.125 2.124-2.5 2.647s-2.5 1.37-2.5 1.882-.895.697-1.988.411c-1.288-.337-2.217.078-2.639 1.177-.358.934-1.575 2.039-2.704 2.457s-2.567 2.286-3.196 4.153c-.86 2.555-1.953 3.626-4.422 4.334-2.152.618-3.59 1.824-4.185 3.513-.576 1.634-2.36 3.185-4.886 4.249-3.142 1.323-3.98 2.205-3.98 4.193 0 1.599-2.007 4.883-5.5 9-3.025 3.566-5.5 7.079-5.5 7.807-.001 1.981-9.749 9.991-11.757 9.661-2.548-.42-4.243.973-4.243 3.485 0 1.295-.898 2.611-2.177 3.191-1.249.566-2.849 2.86-3.75 5.376-.865 2.413-4.157 7.363-7.315 11s-6.758 8.068-8 9.849-2.732 3.243-3.312 3.25c-1.46.017-6.5 5.619-9.907 11.012-1.564 2.475-3.49 4.882-4.281 5.35s-2.669 3.454-4.174 6.637-4.165 7.591-5.911 9.794-3.176 4.392-3.179 4.863-1.308 1.596-2.898 2.501c-1.808 1.028-3.145 2.803-3.57 4.738-.374 1.702-1.104 3.356-1.623 3.677s-2.53 3.814-4.467 7.762-4.399 8.528-5.469 10.178-2.243 3.675-2.608 4.5-1.209 2.175-1.877 3-1.534 2.85-1.926 4.5-1.437 3.804-2.323 4.787c-.983 1.092-1.775 4.207-2.033 8-.351 5.175-.877 6.638-3.147 8.757-2.057 1.92-2.881 3.856-3.358 7.887-.348 2.939-1.284 6.069-2.08 6.956-.848.947-1.68 4.711-2.011 9.113-.947 12.557-1.07 13.448-2.074 15-1.157 1.788-1.43 20.944-.309 21.637.428.264.779 1.558.779 2.873s.704 5.002 1.565 8.191 1.725 6.924 1.92 8.299c.9 6.357 4.847 18.652 6.429 20.027.966.84 2.089 2.848 2.494 4.462s2.054 4.887 3.664 7.273 2.928 5.205 2.928 6.265 1.125 2.664 2.5 3.565c1.644 1.077 2.5 2.562 2.5 4.336 0 1.692 1.118 3.769 3 5.572 1.65 1.581 3 3.393 3 4.026s1.575 2.586 3.5 4.338 3.5 3.602 3.5 4.112c0 1.36 7.095 8.024 8.543 8.024.68 0 2.142 1.925 3.248 4.278 1.12 2.384 3.257 4.929 4.827 5.75 1.548.81 6.77 5.41 11.603 10.222s9.386 8.75 10.117 8.75 3.279 1.8 5.662 4 5.103 4 6.044 4 2.271.675 2.956 1.5 1.81 1.5 2.5 1.5 1.776.628 2.413 1.395 2.83 1.702 4.873 2.077c3.836.703 10.214 5.858 10.214 8.256 0 1.864 2.195 2.505 5.011 1.464 1.969-.729 2.793-.39 4.773 1.964 1.317 1.564 2.981 2.844 3.698 2.844s1.541.619 1.832 1.375c.484 1.262 3.718 2.29 9.437 2.999 1.238.153 3.263 1.219 4.5 2.367 1.297 1.204 4.366 2.388 7.249 2.796 2.75.389 5.771 1.382 6.713 2.207s2.371 1.246 3.177.937 1.955.03 2.556.754 2.834 1.594 4.964 1.935 4.132 1.296 4.449 2.124c.33.859 1.816 1.506 3.456 1.506 1.583 0 4.323.721 6.088 1.602s4.085 1.373 5.153 1.094c1.358-.355 2.583.393 4.076 2.489 1.63 2.29 2.711 2.887 4.579 2.53 3.503-.67 9.788.944 16.904 4.34 3.394 1.62 7.35 2.945 8.792 2.945s3.402.418 4.357.928c2.28 1.218 16.107 3.27 17.255 2.56.491-.303 2.527.131 4.524.966 2.612 1.091 4.684 1.28 7.38.675 2.53-.569 4.271-.46 5.357.334.885.647 4.368 1.252 7.741 1.345s6.661.512 7.306.93c1.133.736 2.599.951 11.173 1.634 2.2.176 5.125.599 6.5.942s5.88.769 10.011.947 8.008.633 8.617 1.009 5.699.91 11.313 1.187c9.041.447 10.415.761 12.026 2.75 1.556 1.923 2.158 2.081 4.176 1.103 4.234-2.053 7.011-2.204 10.44-.569 3.125 1.49 3.511 1.484 5.252-.091 1.734-1.57 1.982-1.576 3.233-.068 1.023 1.233 2.379 1.492 5.548 1.057 3.049-.418 4.532-.166 5.435.923 1.833 2.209 58.207 2.037 60.049-.183.823-.992 2.154-1.263 4.1-.835 1.585.348 3.426.205 4.091-.318 2.3-1.808 6.603-2.228 11.683-1.138 3.853.826 5.453.802 6.538-.098.79-.656 3.136-1.326 5.212-1.489 5.978-.469 20.679-3.504 21.643-4.468.482-.482 1.414-.671 2.071-.419s2.514-.23 4.128-1.072 3.7-1.532 4.637-1.536 2.737-.404 4-.891 5.672-1.678 9.797-2.648 7.95-2.085 8.5-2.479 3.637-1.011 6.859-1.373c4.713-.529 6.523-1.284 9.255-3.861 2.714-2.56 4.098-3.143 6.893-2.902 2.462.212 3.676-.165 4.102-1.275.333-.867 1.166-1.577 1.852-1.577s2.461-1.125 3.944-2.5 3.505-2.5 4.492-2.5 2.608-.9 3.603-2 2.614-2 3.596-2 2.081-.478 2.442-1.062 1.781-1.489 3.156-2.012 2.718-1.784 2.984-2.804c.283-1.082 2.05-2.323 4.242-2.98 2.624-.786 4.298-2.132 5.556-4.468 1.401-2.601 2.306-3.247 4.074-2.909 1.521.29 2.612-.199 3.296-1.477 1.695-3.167 9.048-10.288 10.623-10.288.809 0 2.476-1.36 3.705-3.022s3.703-3.888 5.498-4.947c1.958-1.155 3.529-3.046 3.927-4.728.365-1.542 1.448-3.703 2.407-4.803s2.266-3.013 2.904-4.25 1.975-2.25 2.97-2.25c2.719 0 8.12-7.68 8.12-11.547 0-.681.656-1.491 1.458-1.799 1.207-.463 7.542-12.318 7.542-14.112 0-.298.9-1.442 2-2.542 1.242-1.242 2-3.333 2-5.52 0-2.032 1.057-5.194 2.5-7.48 1.375-2.178 2.5-5.293 2.5-6.921s.476-3.255 1.059-3.615.792-1.864.468-3.342c-.329-1.495.038-4.004.827-5.655.779-1.632 1.708-7.467 2.064-12.967s1.14-11.375 1.744-13.054c.838-2.33.741-4.942-.407-11-.828-4.371-1.347-10.196-1.153-12.946.634-8.979.602-9.915-.596-17.5-.651-4.125-1.148-10.159-1.104-13.409s-.371-6.451-.922-7.115c-.879-1.059-1.818-6.096-3.679-19.732-.282-2.066-.915-4.005-1.407-4.309s-.894-1.625-.894-2.935-.45-2.66-1-3-1-1.846-1-3.348-.902-4.498-2.004-6.66-2.888-7.056-3.969-10.875c-1.13-3.994-3.04-8.065-4.496-9.585-1.392-1.453-2.531-3.335-2.531-4.183 0-2.619-2.999-7.714-4.894-8.316-.991-.314-2.315-2.289-2.944-4.388s-2.49-5.804-4.135-8.231-2.999-4.907-3.009-5.509-.884-1.879-1.943-2.838c-2.472-2.236-7.075-11.618-7.075-14.419 0-1.488-1.841-3.466-5.957-6.4-3.277-2.337-6.516-5.57-7.199-7.185s-3.515-5.661-6.293-8.99-5.82-7.752-6.759-9.829-2.514-4.07-3.5-4.43c-2.219-.812-11.754-10.919-13.504-14.314-1.631-3.166-5.759-7.416-8.038-8.277-.962-.363-1.768-1.237-1.791-1.942s-1.372-2.839-3-4.743-2.959-4.177-2.959-5.05c0-2.113-1.975-3.988-4.2-3.988-.99 0-1.801-.562-1.801-1.25s-3.363-4.525-7.471-8.528-8.661-8.841-10.117-10.75-3.285-3.472-4.063-3.472-2.3-1.499-3.38-3.33-3.141-3.96-4.578-4.729-3.002-2.421-3.477-3.67-1.662-2.281-2.638-2.292-3.041-1.811-4.587-3.997c-1.62-2.289-3.953-4.245-5.5-4.611-1.479-.349-3.9-1.926-5.382-3.503s-3.583-2.868-4.67-2.868c-1.356 0-2.172-.887-2.597-2.821-.358-1.632-2.728-4.686-5.624-7.25-5.056-4.473-8.915-9.864-8.915-12.451 0-1.911-5.871-8.478-7.579-8.478-.996 0-1.204-.837-.759-3.058.505-2.528.253-3.151-1.456-3.598-2.124-.556-5.2-6.403-6.176-11.74-.292-1.593-1.43-3.393-2.53-4s-2.36-1.666-2.8-2.354-1.858-1.25-3.152-1.25c-1.715 0-2.636-.813-3.398-3-.575-1.65-1.43-3-1.899-3s-2.855-2.016-5.302-4.48c-5.015-5.049-6.547-5.411-10.33-2.435l-2.65 2.085-2.707-3.085c-1.489-1.697-3.234-3.085-3.878-3.085s-1.429-.675-1.746-1.5-1.219-1.5-2.006-1.5-2.368-1.8-3.515-4-1.667-4-1.156-4 1.517-1.176 2.234-2.613c.996-1.994 3.081-3.211 8.805-5.138 4.125-1.389 8.175-3.053 9-3.699 3.494-2.736 10.48-4.964 14.953-4.769 4.05.176 5.082-.209 7.591-2.827 2.925-3.053 7.766-5.954 9.935-5.954.645 0 2.229-1.125 3.521-2.5s2.867-2.5 3.5-2.5 2.208-1.125 3.5-2.5 3.11-2.5 4.039-2.5 2.764-.81 4.076-1.8 5.659-2.869 9.659-4.177 7.769-2.972 8.373-3.7 2.182-1.323 3.507-1.323 2.668-.675 2.984-1.5 1.135-1.5 1.819-1.5 3.041-1.303 5.239-2.895 5.406-3.623 7.13-4.515 5.611-3.639 8.64-6.105S607.62 799 608.413 799s2.262-1.015 3.264-2.255c2.289-2.831 6.761-5.745 8.819-5.745.862 0 1.826-.675 2.142-1.5s1.09-1.508 1.719-1.518c1.26-.02 7.35-5.877 13.759-13.232 2.276-2.612 4.626-4.75 5.222-4.75 1.735 0 14.662-13.986 14.662-15.863 0-.939 2.275-3.941 5.056-6.672C668.532 742.088 676 728.12 676 723.254c0-1.069.9-2.759 2-3.754s2.007-2.978 2.015-4.405c.025-4.143 1.463-5.507 5.668-5.374 2.984.094 4.377-.487 6.385-2.662 1.978-2.145 3.855-2.944 8.18-3.484 3.086-.386 6.149-1.348 6.804-2.138s2.274-1.437 3.595-1.437c1.618 0 2.701-.786 3.317-2.406.969-2.548 8.194-4.889 12.009-3.891 1.233.323 2.428-.386 3.557-2.109.935-1.427 2.625-2.594 3.756-2.594s2.847-.715 3.812-1.589c1.875-1.697 6.058-2.967 14.902-4.525 8.937-1.574 13.374-2.955 15.5-4.822 1.1-.967 5.097-2.499 8.883-3.404s8.219-2.313 9.851-3.127 4.502-1.768 6.378-2.12 3.657-1.039 3.958-1.526 2.756-.887 5.454-.887c3.882 0 5.129-.417 5.976-2 .589-1.1 1.491-2 2.006-2s3.394-1.125 6.4-2.5 6.424-2.5 7.596-2.5 3.112-.532 4.314-1.183 3.984-1.264 6.184-1.362 5.575-1.14 7.5-2.314c2.477-1.51 5.147-2.135 9.135-2.137 4.832-.003 5.858-.344 7.197-2.388.942-1.437 2.875-2.587 4.865-2.894 4.443-.686 11.936-3.546 13.882-5.299.868-.783 2.352-1.423 3.298-1.423s3.582-.9 5.859-2 4.865-2 5.752-2 2.097-.485 2.691-1.079 4.62-1.241 8.95-1.44c10.936-.502 15.542-1.406 17.871-3.509 1.668-1.505 3.413-1.752 10.5-1.482 4.675.177 9.022-.107 9.661-.632.746-.614 1.393-.58 1.809.093.962 1.556 5.102 1.27 6.53-.451.803-.967 3.067-1.511 6.372-1.532 2.914-.018 5.966-.665 7.069-1.5 1.068-.807 3.282-1.468 4.921-1.468s3.851-.788 4.914-1.75c1.954-1.769 17.724-2.866 17.724-1.233 0 .867-10.54 8.044-14.151 9.635-1.742.768-2.888 2.251-3.345 4.329-.486 2.212-1.132 2.992-2.155 2.599-4.471-1.715-10.891 4.819-6.995 7.12.745.44 1.9 1.84 2.568 3.111 1.533 2.918 5.442 2.644 5.878-.413.228-1.594.851-1.996 2.581-1.666 2.857.547 10.619-1.479 10.619-2.771 0-.528 1.295-.961 2.878-.961 5.72 0 18.888-6.345 19.31-9.305.195-1.364 1.651-2.816 3.872-3.859 1.958-.92 4.15-2.384 4.872-3.254s1.82-1.597 2.44-1.615c4.139-.122 5.628-3.616 5.628-13.206v-9.419l-4.75-2.172c-2.612-1.194-5.65-2.128-6.75-2.074s-5.375-.26-9.5-.696c-14.306-1.512-31.77-.065-39.819 3.298-2.161.903-4.802 1.221-6.888.829-2.466-.462-4.256-.095-6.606 1.357-2.677 1.655-5.667 2.092-17.684 2.583-7.954.326-14.899 1.029-15.432 1.562s-1.979.971-3.212.971-2.519.45-2.859 1-2.406 1-4.59 1c-2.609 0-4.17.515-4.548 1.5-.391 1.017-1.984 1.5-4.948 1.5-2.405 0-7.194.86-10.643 1.911s-8.729 2.415-11.733 3.031-7.729 2.218-10.5 3.56-7.63 2.935-10.798 3.541c-3.547.679-6.965 2.117-8.897 3.742-2.254 1.897-4.055 2.56-6.401 2.358-2.046-.176-3.578.261-4.104 1.17-.782 1.355-2.828 1.832-14.316 3.338-2.463.322-6.055 1.658-7.982 2.968S807.395 638 806 638s-4.191 1.125-6.215 2.5-4.594 2.5-5.712 2.5c-2.323 0-8.784 2.279-14.418 5.085-2.114 1.053-5.096 1.915-6.627 1.915s-3.343.675-4.028 1.5c-.744.896-2.93 1.5-5.431 1.5-2.303 0-5.06.661-6.128 1.468s-4.009 1.483-6.537 1.5-6.128.803-8 1.746-5.714 1.755-8.537 1.806c-4.376.078-5.604.563-8.327 3.286-2.261 2.261-4.128 3.194-6.394 3.194-2.313 0-3.939.842-5.863 3.034-2.031 2.314-3.221 2.894-5.017 2.444-1.637-.412-2.92.034-4.215 1.465-1.023 1.132-2.411 2.057-3.084 2.057s-1.75.636-2.395 1.413-3.407 1.721-6.139 2.096c-3.275.451-5.296 1.301-5.936 2.497-.588 1.098-1.694 1.624-2.804 1.334-1.008-.263-2.381.182-3.051.989-1.703 2.052-7.142.014-7.142-2.675 0-2.399-6.622-16.095-8.558-17.702-.793-.658-1.442-1.738-1.442-2.4 0-1.585-4.262-5.552-5.965-5.552-.734 0-3.248-2.025-5.586-4.5s-4.922-4.5-5.742-4.5-3.208-2.25-5.305-5-4.385-5-5.084-5-1.945-1.028-2.768-2.284c-.915-1.396-3.742-2.986-7.273-4.09-6.009-1.878-7.422-2.457-18.42-7.55-3.654-1.692-7.28-3.076-8.059-3.076s-2.289-.661-3.357-1.468-2.472-1.483-3.121-1.5c-1.784-.048-14.137-5.927-14.838-7.062-.338-.545-1.874-.896-3.414-.778s-4.023-.588-5.517-1.567c-2.174-1.424-4.746-1.767-12.884-1.717-5.592.034-11.967-.104-14.167-.308s-10.509-.68-18.464-1.058-14.808-.901-15.228-1.161-2.985.188-5.699.994-5.164 1.236-5.444.956c-.615-.615-11.752 1.697-13.165 2.732-.55.404-3.25.699-6 .658s-6.575.662-8.5 1.564-6.257 1.842-9.627 2.088-7.525 1.171-9.234 2.055-5.359 1.658-8.109 1.72c-2.889.065-5.482.691-6.138 1.482-.625.754-2.094 1.384-3.264 1.402s-3.002.692-4.069 1.5-2.832 1.468-3.921 1.468-2.794.736-3.789 1.636c-1.047.948-3.511 1.637-5.854 1.637-2.225 0-4.286.388-4.579.863s-1.596.864-2.893.864c-2.37 0-10.861 3.855-15.523 7.048-1.375.941-4.863 3.192-7.75 5s-5.25 3.663-5.25 4.12-.653.832-1.45.832-1.81.609-2.25 1.354-1.812 1.886-3.05 2.535-2.25 1.822-2.25 2.604-2.035 2.615-4.523 4.073-4.962 3.472-5.499 4.476-2.188 1.967-3.667 2.142c-3.001.352-4.96 3.225-10.446 15.316-.499 1.1-1.999 3.493-3.333 5.318-1.75 2.395-2.615 5.253-3.11 10.272-.376 3.825-1.076 7.196-1.553 7.491-1.206.746-1.095 9.161.131 9.919.55.34 1 1.642 1 2.894s1.575 5.512 3.5 9.467 3.5 8.065 3.5 9.132.628 3.417 1.396 5.223 1.91 5.759 2.539 8.784l1.863 9c.453 2.206 1.534 3.859 2.922 4.47 1.211.534 2.961 2.559 3.888 4.5s2.072 4.205 2.546 5.03 1.405 2.625 2.069 4 2.204 3.85 3.421 5.5 2.965 5.25 3.888 8 2.305 5.71 3.072 6.579 1.396 2.084 1.396 2.703 1.767 2.544 3.926 4.279c2.628 2.111 4.208 4.36 4.776 6.797.486 2.081 1.696 4.022 2.824 4.529 1.916.861 6.533 7.302 7.798 10.878.344.971 1.79 2.208 3.215 2.75s3.726 2.335 5.114 3.985 2.998 3 3.576 3c1.094 0 3.684 2.944 3.739 4.25.018.413-.578.75-1.324.75s-3.419 1.575-5.94 3.5-4.92 3.5-5.33 3.5-1.732.927-2.939 2.061-4.151 3.108-6.543 4.387c-2.494 1.334-4.999 3.645-5.871 5.417-1.239 2.518-2.136 3.094-4.843 3.112-1.827.013-5.202 1.106-7.5 2.429s-7.461 3.19-11.474 4.147c-4.639 1.106-7.79 2.446-8.654 3.68-1.129 1.611-1.72 1.746-3.492.798-2.673-1.431-5.481-.58-7.794 2.361-1.678 2.132-8.251 3.824-14.764 3.799-5.093-.02-27.308 3.097-30.901 4.335-2.212.762-4.038 1.293-4.06 1.18-.721-3.799-4.811-5.672-7.363-3.372-2.461 2.218-6.949 3.099-8.639 1.697-.79-.656-2.984-1.06-4.875-.897s-4.081-.237-4.866-.889c-1.076-.893-3.719-.929-10.717-.148-5.108.57-10.028.739-10.933.374s-5.76-.83-10.788-1.035-11.103-1.054-13.5-1.889-6.045-1.524-8.108-1.532c-2.634-.011-3.75-.455-3.75-1.492 0-2.305-4.611-4.837-7.493-4.114-2.42.607-2.507.46-2.507-4.268 0-5.566-1.567-7.539-5.254-6.613-2.664.668-3.911-1.341-5.295-8.528-.37-1.925-1.368-4.288-2.217-5.25-1.395-1.581-1.384-1.927.111-3.579.91-1.006 1.655-2.472 1.655-3.259 0-.95 1.093-1.428 3.25-1.422 3.444.011 4.763-2.584 3.209-6.313-1.181-2.833-1.026-7.292.291-8.384 1.484-1.232 1.658-9.59.275-13.228-1.06-2.788-4.679-3.511-6.825-1.365-2.373 2.373.527-9.832 3.777-15.896 1.113-2.076 2.023-4.391 2.023-5.145s1.125-2.707 2.5-4.341 2.5-4.23 2.5-5.768c0-2.918 3.34-11.46 5.494-14.05.685-.825 2.51-4.425 4.054-8s3.403-7.21 4.13-8.079 1.322-2.567 1.322-3.774c0-1.413.877-2.53 2.461-3.132 1.875-.713 2.858-2.312 4.135-6.725.921-3.185 2.659-6.968 3.863-8.407s2.786-4.061 3.517-5.826c1.281-3.093 2.666-4.806 11.015-13.623 2.359-2.492 4.117-5.492 4.54-7.75.415-2.212 1.265-3.684 2.126-3.684 2.685 0 6.343-4.727 6.348-8.205.008-5.213 4.081-10.999 8.642-12.275 3.06-.857 4.235-1.896 5.707-5.05 3.554-7.612 4.502-8.022 8.007-3.461 1.687 2.195 3.761 3.991 4.609 3.991 1.484 0 2.719 2.099 5.002 8.5 3.862 10.833 9.333 15.452 13.028 11 .685-.825 2.119-1.5 3.188-1.5 6.556 0 7.911-10.231 1.851-13.976-.6-.371-1.377-3.082-1.725-6.023-.491-4.141-1.388-6.184-3.974-9.046-2.593-2.87-3.34-4.577-3.34-7.626 0-2.161-.455-4.384-1.012-4.941C284.77 637.17 283.867 628 287.67 628c.706 0 2.079-1.237 3.052-2.75s2.783-3.57 4.023-4.573 2.255-2.395 2.255-3.095.9-2.087 2-3.082 2-2.366 2-3.047 1.058-1.502 2.351-1.826 3.656-2.506 5.25-4.848 5.439-6.629 8.543-9.528 5.899-6.278 6.211-7.511 1.94-2.843 3.618-3.579 3.536-2.312 4.128-3.5 3.07-4.186 5.507-6.661c6.382-6.481 14.596-16.589 16.733-20.59 1.012-1.895 4.948-6.228 8.746-9.628s7.151-6.955 7.45-7.899 1.882-2.182 3.517-2.752 3.27-1.845 3.634-2.834 1.283-2.171 2.042-2.628 1.795-1.919 2.301-3.25c.522-1.375 1.731-2.419 2.799-2.419 1.14 0 3-1.771 4.724-4.5 1.676-2.651 3.595-4.5 4.67-4.5 1.004 0 2.23-1.012 2.724-2.25s2.733-4.163 4.975-6.502 4.077-4.649 4.077-5.133.898-1.116 1.995-1.403 2.279-1.262 2.626-2.166 1.811-2.885 3.255-4.403 3.365-3.633 4.271-4.701 3.509-3.278 5.786-4.911 4.382-3.939 4.68-5.124 1.6-2.639 2.895-3.229 3.37-2.446 4.611-4.125 2.846-3.053 3.566-3.053c1.651 0 9.302-6.844 9.353-8.366.021-.624 2.019-2.686 4.441-4.582s4.664-4.485 4.981-5.75 1.014-2.302 1.547-2.302 2.077-1.757 3.432-3.903 4.961-5.854 8.013-8.237 5.548-5.127 5.548-6.097.566-1.763 1.257-1.763 3.504-2.46 6.25-5.467C494.639 407.346 496.97 405 497.95 405c.564 0 2.217-1.888 3.673-4.195s4.05-5.626 5.763-7.375 4.161-4.587 5.44-6.305 3.122-3.125 4.095-3.125c1.624 0 5.079-2.88 5.079-4.234 0-.317 2.925-3.603 6.5-7.304s6.5-7.103 6.5-7.561c0-1.35 6.947-7.901 8.378-7.901 1.574 0 4.622-3.185 4.622-4.829 0-.644.519-1.171 1.153-1.171 1.175 0 12.847-11.469 12.847-12.624 0-.349 1.913-2.538 4.25-4.864 3.779-3.761 11.745-13.204 13.57-16.085.374-.59 1.468-1.363 2.43-1.719s1.75-1.25 1.75-1.989 1.35-2.341 3-3.561 3-3.108 3-4.196c0-1.73.252-1.821 2.003-.728 2.489 1.554 5.48-.02 5.532-2.91.019-1.072 2.157-4.162 4.75-6.869s4.715-5.437 4.715-6.069 1.553-2.333 3.452-3.781 4.209-3.916 5.135-5.484 2.973-3.611 4.549-4.542 2.864-2.342 2.864-3.136.717-1.443 1.594-1.443 1.829-.9 2.116-2 .935-2 1.439-2 1.238-.867 1.633-1.926c.955-2.563 11.444-14.943 12.723-15.016.552-.032 2.577-2.033 4.5-4.447s4.994-5.422 6.827-6.685 4.289-4.334 5.46-6.824 4.059-6.431 6.418-8.757 4.293-4.593 4.297-5.037 1.579-1.879 3.5-3.187 3.493-2.996 3.493-3.75.847-1.371 1.881-1.371c2.055 0 6.5-5.24 8.169-9.632 1.55-4.076 9.192-13.266 11.078-13.321 2.184-.063 3.43-1.752 4.869-6.603.721-2.43 2.065-4.435 3.353-5 1.183-.519 3.604-3.808 5.38-7.309 3.376-6.651 13.322-19.557 16.3-21.151.951-.509 2.41-2.626 3.243-4.705s2.461-4.636 3.62-5.684 2.107-2.532 2.107-3.298 1.034-2.384 2.298-3.595 2.941-4.227 3.729-6.702 2.242-5.175 3.232-6 2.083-3.3 2.428-5.5c.617-3.95 2.726-7.526 7.009-11.891 1.351-1.377 2.84-5.098 3.872-9.673.922-4.09 2.308-8.675 3.081-10.188s1.678-7.139 2.011-12.5c.409-6.581 1.102-10.318 2.132-11.502 1.539-1.77.412-6.746-1.528-6.746-.428 0-.646-3.487-.484-7.75.211-5.532-.132-8.465-1.199-10.25-.822-1.375-1.957-3.625-2.522-5-2.299-5.596-3.734-7.516-5.845-7.82-1.22-.176-2.683-1.188-3.251-2.25S750.319 14 749.572 14s-1.617-.675-1.934-1.5-1.474-1.5-2.571-1.5-2.478-.9-3.067-2-1.842-2.014-2.785-2.032-2.606-.705-3.696-1.529c-1.218-.921-3.009-1.271-4.654-.909-1.471.323-2.969.111-3.329-.471s-2.09-1.073-3.845-1.091-4.065-.692-5.132-1.5C716.115-.38 651.42-.761 650.81 1.07M325.032 212.095c-.018.877-.932 2.41-2.032 3.405s-2 2.475-2 3.287c0 2.797-4.06 8.038-7.027 9.073-1.635.57-2.973 1.599-2.973 2.288 0 .974.267.985 1.2.052.66-.66 2.135-1.2 3.277-1.2 2.662 0 6.744-2.833 5.946-4.125-1.073-1.736.488-5.618 2.467-6.136 2.974-.778 4.325-4.076 2.603-6.351-1.191-1.574-1.435-1.622-1.461-.293m-20.284 11.755c-1.035 1.751-1.302 3.253-.741 4.161.68 1.1 1.124.774 1.966-1.439.598-1.573 1.306-3.214 1.573-3.647s.112-1.018-.346-1.302-1.562.719-2.452 2.227m376.895 233.138c-1.572.493-3.597 1.544-4.5 2.336s-2.644 1.744-3.867 2.117c-3.636 1.107-6.584 6.104-5.864 9.94.531 2.834.271 3.442-1.898 4.431-1.887.86-2.514 1.907-2.514 4.202 0 1.681-.725 4.163-1.611 5.515-6.048 9.231 5.565 27.56 13.022 20.554 1.986-1.866 2.422-1.96 2.93-.637.894 2.329 3.454 1.878 6.207-1.092l2.452-2.646v3.472c0 6.992 11.012 10.315 12.707 3.834.263-1.006 1.305-2.045 2.317-2.31 1.133-.296 2.26-2.043 2.935-4.55.602-2.238 1.57-4.363 2.151-4.722 4.01-2.478 6.483-15.791 4.507-24.261-1.684-7.22-1.617-6.88-1.617-8.171 0-.55-.916-1-2.035-1-2.056 0-6.624-2.498-8.465-4.63-.947-1.096-4.227-1.953-11-2.872-1.65-.224-4.286-.004-5.857.49m-124.631 13.716c-1.143.801-2.029 2.572-2.052 4.103l-.04 2.693-1.492-2.75c-1.754-3.234-5.364-3.709-6.124-.806-.279 1.069-1.459 2.081-2.622 2.25-3.894.564-4.941 12.806-1.096 12.806 1.152 0 1.365.577.832 2.25-1.766 5.539.861 8.618 4.523 5.303 1.133-1.025 2.059-1.546 2.059-1.158 0 1.355-2.882 6.262-4.434 7.55-2.166 1.798-1.961 6.387.38 8.506 1.074.972 2.082 3.384 2.25 5.382.575 6.846 13.174 8.951 18.958 3.167 1.65-1.65 3.18-3 3.399-3 3.696 0 14.447-15.475 14.447-20.794 0-1.737.629-3.233 1.5-3.568 2.356-.904 1.961-6.705-.5-7.348-1.553-.406-2-1.364-2-4.286 0-8.78-19.771-16.056-27.988-10.3m-13.819 154.563c-1.635 1.971-17.668 3.839-35.947 4.188-10.328.198-15.721.694-16.741 1.541-1.103.915-1.859.955-2.829.15-.908-.753-1.647-.775-2.353-.069-.566.566-4.133 1.168-7.926 1.337s-8.247.859-9.897 1.532-5.475 1.446-8.5 1.716-6.4.894-7.5 1.385-3.575 1.018-5.5 1.172-3.426.731-3.335 1.281c.313 1.9-1.843 3.597-3.171 2.495-.904-.75-1.69-.346-2.891 1.488-.907 1.384-2.201 2.52-2.876 2.523s-2.526.684-4.115 1.512-5.288 2.204-8.222 3.057-6.694 2.229-8.356 3.058c-1.671.833-3.938 1.215-5.076.854-2.44-.775-6.958 1.867-6.958 4.067 0 .83-.788 1.786-1.75 2.125-2.541.894-10.358 4.236-13.16 5.626-2.971 1.473-13.09 11.391-13.09 12.829 0 .577-2.475 4.03-5.5 7.675-6.048 7.286-6.527 8.955-3.387 11.786 1.837 1.657 2.036 2.642 1.526 7.555-.492 4.729-.203 6.372 1.771 10.085 1.297 2.44 2.695 5.973 3.105 7.851s1.587 4.487 2.615 5.799 1.87 3.373 1.87 4.58 1.123 4.41 2.496 7.116 2.499 5.369 2.504 5.919 1.355 3.025 3 5.5 2.993 5.11 2.996 5.855 1.28 3.246 2.841 5.558 3.133 5.689 3.497 7.506c.37 1.85 2.861 5.843 5.663 9.078 2.752 3.176 5.003 6.065 5.003 6.419s1.575 2.028 3.5 3.718 3.5 3.938 3.5 4.994c0 1.129 1.031 2.313 2.5 2.872 1.375.523 2.5 1.473 2.5 2.111s1.012 2.156 2.25 3.374c5.065 4.983 7.75 8.423 7.75 9.925 0 1.767 2.524 2.17 3.517.562.4-.646 1.587-.334 3.2.84 2.66 1.938 9.321-.056 11.519-3.448.405-.625 2.211-1.413 4.013-1.751 2.063-.387 3.643-1.446 4.264-2.858.543-1.234 1.887-2.409 2.987-2.611s2.332-.942 2.737-1.644 1.961-1.584 3.456-1.959 3.326-1.55 4.069-2.612c.805-1.15 2.52-1.929 4.245-1.929 1.591 0 3.28-.69 3.752-1.534 1.021-1.824 17.877-13.452 19.568-13.498 1.736-.047 4.795-2.59 6.062-5.04.611-1.182 2.878-2.749 5.039-3.482s5.179-2.258 6.709-3.389 3.28-2.057 3.889-2.057c2.521 0 7.766-5.079 7.257-7.027-.661-2.525 2.55-3.921 4.112-1.789.94 1.284 1.549 1.001 4.077-1.898 2.552-2.926 3.518-3.367 6.838-3.128 2.818.204 4.126-.187 4.828-1.439.529-.946 1.966-1.719 3.194-1.719 1.237 0 5.189-2.454 8.859-5.5 3.645-3.025 7.455-5.503 8.468-5.507s3.191-.93 4.841-2.059 3.9-2.483 5-3.008 3.35-1.816 5-2.868 3.997-1.945 5.215-1.985S584.411 729.1 585 728s1.906-2 2.928-2 2.117-.675 2.434-1.5 1.23-1.5 2.03-1.5 2.727-1.024 4.281-2.275 4.177-2.879 5.827-3.617 3.781-1.739 4.736-2.225 2.31-.883 3.01-.883 1.835-.9 2.522-2 2.332-2 3.659-2c3.288 0 5.573-.978 5.573-2.384 0-2.377 3.178-5.838 4.316-4.7 2.562 2.562 18.632-2.214 18.671-5.548.007-.643 1.746-1.156 4.026-1.188 4.825-.066 9.572-3.2 7.684-5.073-.658-.654-2.145-4.208-3.304-7.898-1.868-5.948-2.433-6.766-4.978-7.215-2.081-.367-3.149-1.33-3.88-3.5-1.236-3.668-2.254-4.459-5.762-4.479-1.794-.01-3.287-.87-4.365-2.515-.901-1.375-2.245-2.5-2.988-2.5s-1.831-.9-2.42-2-1.674-2-2.411-2-2.859-2.238-4.715-4.974-3.881-4.986-4.502-5-1.696-.711-2.391-1.549c-.746-.898-2.044-1.274-3.17-.917-1.049.333-2.448.161-3.109-.382s-2.327-1.142-3.702-1.332c-1.697-.235-2.603-1.069-2.82-2.596-.196-1.386-1.013-2.25-2.127-2.25-.995 0-2.368-.675-3.053-1.5s-1.99-1.5-2.9-1.5-2.543-.619-3.627-1.375-3.978-1.711-6.43-2.122-5.748-1.704-7.328-2.872c-1.673-1.237-3.943-1.982-5.439-1.786-1.413.185-3.515-.136-4.672-.713s-5.704-1.492-10.104-2.035-8.931-1.267-10.07-1.611c-1.236-.373-2.539-.059-3.237.781M214.41 650.468c-3.66.62-7.451 2.042-9.5 3.562-1.876 1.392-5.57 3.083-8.21 3.759-5.283 1.354-9.7 3.857-9.7 5.497 0 1.845-3.133 4.6-4.594 4.04-.773-.297-1.406-1.539-1.406-2.76 0-3.223-5.759-2.372-6.6.975-.938 3.737-9.154 9.459-13.582 9.459-.967 0-2.756 1.35-3.976 3-2.158 2.918-6.078 4.045-7.284 2.094-.944-1.527-4.922-.039-7.558 2.827-1.375 1.495-4.525 3.653-7 4.797s-5.591 3.251-6.924 4.681-3.021 2.601-3.75 2.601-1.326.689-1.326 1.531-.787 1.83-1.75 2.194-4.45 2.712-7.75 5.218-6.9 5.056-8 5.665-2.051 2.064-2.113 3.232c-.159 3.016-1.955 4.824-5.494 5.531-1.684.337-4.33 1.516-5.882 2.621S88.542 723 87.749 723s-3.284 2.025-5.537 4.5-4.909 4.501-5.904 4.503c-1.049.001-2.647 1.539-3.808 3.666-1.1 2.015-2.675 3.998-3.5 4.407s-2.85 1.367-4.5 2.127c-7.537 3.473-10.506 5.925-9.933 8.206.884 3.524-2.83 7.461-5.502 5.833-1.136-.693-2.065-.832-2.065-.309s.45 1.227 1 1.567c1.892 1.169 1.02 4.534-1.469 5.668-1.357.618-2.254 1.471-1.993 1.894 1.108 1.793-4.697 7.051-6.312 5.717-1.348-1.113-1.479-.916-1.015 1.527.624 3.283-1.788 6.517-3.547 4.758-2.487-2.487-6.664-1.254-6.664 1.967 0 1.772-.623 3.271-1.5 3.607-.825.317-1.5 1.28-1.5 2.14s-.788 2.436-1.75 3.501c-3.159 3.497-2.402 19.027 1.061 21.751 1.479 1.163 2.689 2.688 2.689 3.388s.9 2.087 2 3.082c1.241 1.123 2 3.08 2 5.155 0 2.881.339 3.345 2.443 3.345 1.344 0 3.032.808 3.75 1.796s2.995 2.583 5.057 3.547c2.28 1.064 3.75 2.451 3.75 3.537 0 2.053 6.688 9.12 8.631 9.12.714 0 1.724.795 2.244 1.767 1.997 3.732 16.746 6.6 19.135 3.721.961-1.158 1.579-1.244 2.635-.368.949.788 1.066 1.523.375 2.356-1.047 1.261 2.509 3.524 5.538 3.524.805 0 3.371.867 5.703 1.926s6.264 2.217 8.739 2.573 5.926 1.293 7.668 2.082 6.748 2.06 11.123 2.824 8.882 1.885 10.016 2.492 5.354 1.13 9.377 1.163 9.457.412 12.074.842c3.52.58 5.046.437 5.863-.548.608-.733 1.505-1.085 1.992-.784s.887-.154.887-1.011.675-1.559 1.5-1.559 1.5.513 1.5 1.14c0 1.537 3.089 3.789 5.25 3.828.963.018 1.75-.418 1.75-.968s-.45-1-1-1-1-.661-1-1.47-.825-2.945-1.834-4.75c-5.117-9.153-7.447-40.117-3.783-50.28.992-2.75 2.176-7.581 2.632-10.736s1.764-7.05 2.907-8.655S167 787.255 167 786.11c0-2.66 1.967-11.081 3.118-13.346.485-.955.892-3.205.904-5s.902-4.389 1.978-5.764 1.966-3.077 1.978-3.781.697-1.541 1.522-1.857 1.5-1.563 1.5-2.769.396-2.62.879-3.143 1.449-2.75 2.145-4.95 2.27-5.206 3.498-6.681 3.228-4.737 4.445-7.25S191.553 727 192.01 727s1.117-1.303 1.467-2.896 1.493-3.672 2.541-4.62 3.321-4.482 5.053-7.854 4.449-7.501 6.039-9.178 2.89-3.779 2.89-4.673 1.575-3.689 3.5-6.211 3.5-5.221 3.5-5.999 1.735-2.911 3.855-4.741c2.133-1.841 4.401-5.003 5.077-7.077.673-2.062 2.967-5.62 5.1-7.908s4.159-5.437 4.503-7.001S236.699 656 237.36 656c1.302 0 3.773-5.533 2.873-6.433-.302-.302-1.18-.026-1.95.613-1.723 1.43-10.708 1.575-14.783.239-1.988-.651-5.054-.635-9.09.049m6.344 20.782c-.671 1.824.214 3.75 1.722 3.75s2.43-1.926 1.793-3.75c-.239-.687-1.025-1.25-1.745-1.25s-1.517.563-1.77 1.25M494 712.5c0 .833.889 1.5 2 1.5s2-.667 2-1.5-.889-1.5-2-1.5-2 .667-2 1.5m158 9.525c-.825.499-3.536 1.787-6.025 2.863-4.992 2.159-7.57 4.567-8.148 7.612-.32 1.686-1.173 2-5.434 2-2.78 0-5.694.515-6.474 1.143-2.995 2.414-9.07 5.357-11.056 5.357-1.141 0-3.715 1.251-5.719 2.78s-5.82 3.891-8.479 5.25l-7 3.705c-1.191.68-2.883 1.242-3.76 1.25s-2.41.915-3.405 2.015-2.562 2-3.481 2-2.727 1.125-4.019 2.5-3.34 2.5-4.552 2.5-2.763.675-3.448 1.5-1.81 1.5-2.5 1.5-1.815.675-2.5 1.5-2.284 1.5-3.554 1.5c-1.397 0-3.11 1.124-4.335 2.844-1.814 2.548-15.5 10.156-18.27 10.156-.579 0-2.758 1.35-4.841 3s-4.26 3-4.837 3c-2.033 0-8.704 4.489-12.221 8.222-1.957 2.078-3.982 3.788-4.5 3.8s-2.067.902-3.442 1.978-3.335 1.966-4.356 1.978-3.192 1.147-4.826 2.522-3.782 2.5-4.772 2.5c-2.547 0-3.691 1.83-4.342 6.943-.337 2.646-1.344 5.074-2.49 6-1.058.857-2.2 2.345-2.538 3.307-.447 1.276-1.706 1.75-4.645 1.75-3.215 0-4.031.364-4.031 1.8 0 .99-.489 2.289-1.087 2.887-.783.783-.765 1.287.065 1.799s.68 1.234-.507 2.546c-1.966 2.172-4.471 1.534-4.471-1.139 0-2.48-1.647-2.421-3 .107-.589 1.1-2.067 2.014-3.285 2.032a6.64 6.64 0 0 0-5.996 4.218c-.361.962-1.12 1.75-1.688 1.75-1.853 0-1.069 1.475 1.39 2.615 2.006.93 2.742.778 4.437-.918 1.607-1.606 2.331-1.785 3.455-.852 1.105.917 1.682.866 2.591-.229.643-.775 2.048-1.18 3.122-.899 5.273 1.379 10.977-1.892 10.718-6.146-.278-4.548 2.891-6.683 3.944-2.658.758 2.902 9.051 1.748 12.544-1.745.642-.642 1.663-1.168 2.269-1.168 2.13 0 6.483-2.515 6.491-3.75.004-.687.646-1.25 1.426-1.25s3.292-1.8 5.582-4c4.556-4.377 5.111-4.572 7.958-2.794 1.576.984 2.276.892 3.815-.5 1.036-.938 2.398-1.706 3.025-1.706s2.617-.804 4.422-1.786 5.87-2.581 9.035-3.553 6.986-2.907 8.49-4.3 4.314-3.191 6.245-3.993 5.171-2.788 7.201-4.413 4.174-2.955 4.764-2.955c1.542 0 5.407-2.284 6.345-3.75.44-.687 1.79-1.25 3-1.25 1.315 0 3.321-1.405 4.988-3.494 2.032-2.547 3.85-3.664 6.704-4.121 2.154-.344 4.681-1.472 5.617-2.505s2.248-1.88 2.917-1.88 2.961-1.8 5.095-3.999 4.393-4 5.022-4 1.404-.68 1.722-1.51 1.622-1.984 2.898-2.565 2.751-2.003 3.278-3.159 1.818-2.59 2.869-3.185c2.268-1.285 13.59-12.139 13.59-13.028 0-.34 3.564-4.235 7.92-8.656s8.178-8.569 8.493-9.218 1.709-2.867 3.095-4.93c2.612-3.886 1.467-5.129-2.508-2.725M472.627 782.86c-1.409 1.557-1.458 2.035-.304 2.993 1.058.878 1.759.714 3.05-.713 1.409-1.557 1.458-2.035.304-2.993-1.058-.878-1.759-.714-3.05.713m-21.585 10.59c-2.029 2.444.609 5.328 2.836 3.1 1.401-1.4 1.401-1.7 0-3.1s-1.674-1.4-2.836 0M102 827.3c0 .715.529 1.829 1.176 2.476 1.506 1.506 3.942-.306 3.158-2.349-.685-1.784-4.334-1.891-4.334-.127m30.11.067c-1.716 2.068 1.284 4.381 3.402 2.623 1.488-1.235.444-3.99-1.512-3.99-.415 0-1.266.615-1.89 1.367m-17.605 8.005c-2.071 1.515-1.447 4.628.928 4.628 2.243 0 3.843-3.526 2.214-4.878-.957-.794-1.806-.726-3.142.25M430 854.987c0 .542-1.52 1.621-3.378 2.398s-3.744 2.019-4.192 2.763c-.676 1.123-.54 1.13.804.041.89-.721 2.214-1.193 2.942-1.05 3.68.727 8.62-1.203 8.107-3.165-.517-1.977-4.283-2.845-4.283-.987m-15.8 5.213c-1.862 1.862-1.422 2.971 1.04 2.62 1.232-.176 2.39-1.108 2.573-2.07.382-2.006-1.822-2.341-3.613-.55M152 861.5c0 .833.889 1.5 2 1.5s2-.667 2-1.5-.889-1.5-2-1.5-2 .667-2 1.5m296.731 15.803c-.602 1.531-1.78 1.772-7.789 1.597-5.996-.176-7.396.11-9.153 1.866-1.703 1.703-2.409 1.865-3.954.904-1.486-.924-2.454-.84-4.608.402-2.766 1.595-5.638 3.131-9.187 4.912-1.079.541-2.608.735-3.399.432s-1.73-.081-2.086.495c-.443.717-1.247.674-2.545-.137-1.535-.958-2.257-.86-3.772.511-1.127 1.019-3.444 1.673-5.806 1.639-12.691-.186-17.828 1.468-20.469 6.59-1.326 2.572-2.055 2.958-5.304 2.811-3.054-.137-3.927.25-4.609 2.044-1.134 2.981-3.674 5.049-4.52 3.68-1.067-1.727-2.378-1.185-1.867.771.555 2.123-2.115 4.875-3.133 3.229s-2.249-1.233-2.82.951c-.333 1.273-1.375 2.008-2.866 2.022-1.651.015-2.788.972-3.844 3.236-.997 2.137-2.537 3.504-4.593 4.078-1.766.493-3.829 2.109-4.807 3.764-1.147 1.941-2.521 2.9-4.157 2.9-1.38 0-2.443.585-2.443 1.345 0 1.768-3.239 4.655-5.222 4.655-.86 0-1.823.675-2.14 1.5s-1.515 1.5-2.663 1.5c-3.229 0-12.347 9.516-12.777 13.336-.626 5.554-5.426 8.848-6.98 4.79-.591-1.542-1.161-1.701-3.218-.902l-2.5.972 2.25.87c3.278 1.267 2.858 4.568-.822 6.471-2.556 1.322-3.344 1.368-4.692.276-.891-.722-1.313-.801-.939-.176s.055 1.656-.71 2.291-1.672 2.276-2.017 3.648c-.546 2.178-3.736 4.383-7.07 4.887-1.526.231-4.825 1.57-6.5 2.638a17.94 17.94 0 0 1-3.25 1.545c-2.076.697-2.098.824-.56 3.286 1.604 2.569-.466 5.068-4.197 5.068-1.823 0-3.305.827-4.356 2.431-.912 1.392-2.779 2.568-4.365 2.75-1.955.225-2.863.958-3.081 2.485-.182 1.278-2.323 3.533-5.224 5.5-2.703 1.834-4.927 4.031-4.941 4.884-.034 2.048-2.013 3.95-4.109 3.95-.926 0-1.919.9-2.207 2s-1.24 2-2.116 2c-1.982 0-5.177 3.11-6.063 5.902-.367 1.155-1.648 2.621-2.849 3.258-3.422 1.815-8.945 10.84-6.634 10.84 1.524 0 1.098 3.634-.59 5.035-1.169.97-1.824.999-2.7.123-2.476-2.476-8.758 3.469-8.758 8.287 0 .817-.9 1.966-2 2.555s-2 .755-2 .369-1.772 1.217-3.937 3.563-4.415 3.968-5 3.607c-.607-.375-1.063.151-1.063 1.228 0 1.036-1.101 2.918-2.446 4.182s-2.583 3.705-2.75 5.424c-.205 2.11-1.039 3.449-2.563 4.118-1.243.545-2.491 1.722-2.775 2.616s-2.76 3.02-5.503 4.725c-2.977 1.851-5.393 4.222-5.995 5.884-.555 1.531-1.409 3.684-1.898 4.784a45.04 45.04 0 0 0-1.448 3.75c-.308.963-1.46 1.75-2.561 1.75s-2.999 1.35-4.219 3-2.779 3-3.464 3-1.388 1.237-1.562 2.75c-.226 1.969-.955 2.841-2.566 3.07-1.815.257-2.25.958-2.25 3.627 0 1.82-.675 3.868-1.5 4.553s-1.5 2.311-1.5 3.614c0 1.309-.915 2.932-2.045 3.628-1.124.692-3.421 3.396-5.104 6.008s-3.463 4.75-3.955 4.75-.896 1.035-.896 2.3-.492 2.792-1.093 3.393c-.79.79-.766 1.702.086 3.294 1.273 2.378-1.812 7.013-4.667 7.013-.786 0-1.326 1.142-1.326 2.801 0 2.018-1.258 4.001-4.5 7.09-2.475 2.359-4.5 5.063-4.5 6.008s-.661 2.592-1.468 3.66c-2.243 2.965-1.944 7.1.56 7.755 2.674.699 1.843 13.318-1.352 20.542-1.82 4.113-1.893 5.215-.846 12.704.795 5.677.833 9.027.127 10.885-.562 1.477-1.021 3.823-1.021 5.214 0 1.673-.665 2.702-1.967 3.043-1.082.282-2.237 1.365-2.567 2.406s-.972 1.892-1.425 1.892-1.092 1.068-1.42 2.372c-.733 2.923 1.957 8.628 4.069 8.628 1.152 0 1.402.697.986 2.75-.827 4.084 1.745 11.462 6.885 19.75 1.365 2.2 2.773 4.675 3.13 5.5s1.687 2.759 2.955 4.298 3.043 4.352 3.944 6.25 2.031 3.452 2.511 3.452c.841 0 4.993 5.735 7.704 10.639.717 1.299 1.922 2.361 2.677 2.361 1.803 0 5.518 4.771 5.518 7.087 0 1.014 1.889 3.116 4.273 4.757 2.351 1.617 4.902 4.114 5.669 5.548s2.187 2.608 3.154 2.608 2.614 1.088 3.66 2.417 3.216 2.567 4.823 2.75c2.342.267 2.984.878 3.237 3.082.27 2.339.893 2.841 4.188 3.368 3.905.624 8.46 3.823 7.547 5.3-.271.439 1.631 1.812 4.228 3.05l6.457 3.142c.955.49 2.348.891 3.095.891s2.174.9 3.169 2 2.528 2.006 3.405 2.012 3.527 1.807 5.888 4 4.917 3.988 5.679 3.988 4.061 1.594 7.332 3.543 7.666 3.821 9.766 4.162 5.37 1.672 7.265 2.957 4.226 2.338 5.182 2.338 2.298.675 2.983 1.5 2.771 1.5 4.636 1.5 4.285.45 5.378 1l4.088 2.072c1.155.589 4.853 1.515 8.215 2.057s6.58 1.362 7.149 1.823c4.536 3.679 11.265 6.223 17.839 6.743 3.957.313 7.87 1.134 8.695 1.825s4.783 1.832 8.795 2.536 7.526 1.655 7.809 2.112 2.261.832 4.396.832 4.16.45 4.5 1 3.996 1 8.125 1 8.396.476 9.483 1.058 4.32 1.095 7.184 1.142 6.02.5 7.013 1.007 4.651 1.06 8.129 1.229 8.398 1.098 10.934 2.067c3.72 1.42 4.9 1.52 6.112.514 1.63-1.353 10.095-.591 12.143 1.093.617.508 7.27 1.124 14.784 1.369s14.092.711 14.617 1.036 3.513.117 6.639-.46c4.795-.887 5.958-.803 7.436.534 1.43 1.295 4.016 1.546 14.076 1.371l17.127-.154c4.146.053 4.953-.271 5.91-2.372 1.566-3.438 3.083-3.034 5.63 1.499 2.37 4.216 5.07 4.629 12.348 1.888 1.479-.558 3.279-.644 4-.192s2.143.684 3.16.516 3.156.236 4.751.897c1.934.801 3.317.872 4.15.214.687-.543 4.399-1.296 8.249-1.673 4.126-.404 8.404-1.513 10.419-2.7 2.188-1.289 4.293-1.796 5.846-1.406 1.334.335 2.946.201 3.581-.297s3.073-1.2 5.418-1.558 5.158-1.544 6.25-2.636 2.971-1.986 4.176-1.986c3.28 0 14.063-2.088 16.046-3.108.955-.49 3.715-.892 6.134-.892 3.614 0 4.494-.371 4.941-2.083.416-1.588 1.215-2.015 3.367-1.798 1.552.157 4.025-.509 5.495-1.481s5.294-2.031 8.5-2.355c4.33-.437 6.393-1.191 8.029-2.935 1.211-1.292 2.851-2.348 3.643-2.348s1.7-.675 2.017-1.5 1.666-1.5 3-1.5 2.683-.675 3-1.5 1.489-1.5 2.607-1.5 2.031-.438 2.031-.974 1.318-1.656 2.929-2.489 3.073-2.486 3.25-3.674.996-2.472 1.821-2.855 2.506-1.217 3.736-1.853 2.929-1.155 3.775-1.155 1.966-1.125 2.489-2.5c.717-1.886 1.674-2.5 3.899-2.5 3.042 0 9.101-4.22 9.101-6.339 0-1.435 5.782-6.14 8.672-7.057 1.171-.372 2.411-1.797 2.755-3.169.383-1.525 1.973-3.135 4.099-4.149 2.044-.974 3.474-2.389 3.474-3.436 0-.979 1.288-3.259 2.862-5.065 3.352-3.847 7.45-12.03 9.901-19.774 1.265-3.998 2.451-5.83 4.368-6.747 3.143-1.504 4.711-6.6 5.927-19.258.711-7.405 1.144-8.756 3.379-10.537 2.486-1.983 2.563-2.394 2.563-13.634 0-8.727.347-11.878 1.403-12.755 2.604-2.16-.803-41.254-3.928-45.08-1.429-1.75-2.894-8.133-4.57-19.917-.659-4.63-1.804-9.58-2.545-11s-1.35-4.498-1.354-6.84c-.005-3.289-.574-4.75-2.506-6.43-1.375-1.195-2.5-3.148-2.5-4.338s-.9-2.98-2-3.975-2-2.364-2-3.041-.672-2.519-1.494-4.095-1.496-3.582-1.5-4.459-.906-2.41-2.006-3.405-2-2.363-2-3.038-.9-1.464-2-1.752c-1.285-.336-2-1.364-2-2.877 0-1.294-1.125-3.567-2.5-5.05s-2.5-2.963-2.5-3.289-1.575-2.215-3.5-4.197-3.5-4.237-3.5-5.01-1.614-3.517-3.587-6.097-4.232-6.04-5.021-7.69-2.542-4.8-3.896-7-2.471-4.787-2.48-5.75-.625-1.75-1.37-1.75-4.233-3.242-7.75-7.204l-9.217-10.25c-1.552-1.675-3.448-4.229-4.213-5.675s-2.051-2.882-2.857-3.191-1.61-1.814-1.787-3.344c-.255-2.206-1.048-2.996-3.822-3.809-4.912-1.441-6-2.323-6-4.867 0-1.55-.907-2.564-3-3.354-2.035-.768-3-1.815-3-3.254 0-3.012-2.898-7.052-5.058-7.052-2.052 0-4.942-3.571-4.942-6.106 0-.913-.9-1.896-2-2.184s-2-1.24-2-2.116-.562-1.609-1.25-1.627c-1.549-.041-5.75-3.464-5.75-4.685 0-.493-1.75-1.669-3.89-2.613-2.175-.96-4.125-2.62-4.425-3.767-.295-1.128-1.493-2.301-2.662-2.606-1.332-.349-2.339-1.627-2.699-3.426-.316-1.578-1.158-2.87-1.871-2.87s-2.795-1.734-4.625-3.853-5.079-4.675-7.219-5.681-4.091-2.593-4.336-3.528c-.254-.975-2.437-2.337-5.109-3.188-2.911-.928-4.796-2.157-5.016-3.269-.194-.98-1.657-2.88-3.25-4.221S539 963.193 539 962.425s-1.575-2.056-3.5-2.861-3.514-2.047-3.532-2.763c-.067-2.781-5.06-7.103-8.105-7.016-1.726.049-3.207-.518-3.526-1.35-.303-.789-1.349-1.435-2.325-1.435s-2.902-1.462-4.28-3.25c-6.997-9.077-20.376-21.75-22.962-21.75-3.317 0-4.197-1.387-3.915-6.173.196-3.315-.093-3.849-2.399-4.427-1.937-.487-2.494-1.147-2.132-2.529.269-1.029.157-1.871-.248-1.871-1.358 0-8.687-7.469-10.058-10.25-.746-1.513-2.128-2.75-3.073-2.75-4.94 0-13.275-6.598-12.6-9.974.469-2.345.094-2.873-2.862-4.033-1.871-.734-3.546-2.045-3.722-2.914-.269-1.328-.433-1.292-1.03.224" fill-rule="evenodd"/></svg>